<?xml version="1.0" encoding="utf-8"?>
<!-- Generator: Adobe Illustrator 18.0.0, SVG Export Plug-In . SVG Version: 6.00 Build 0)  -->
<!DOCTYPE svg PUBLIC "-//W3C//DTD SVG 1.1//EN" "http://www.w3.org/Graphics/SVG/1.1/DTD/svg11.dtd">
<svg version="1.1"
	 id="svg2" xmlns:cc="http://creativecommons.org/ns#" xmlns:rdf="http://www.w3.org/1999/02/22-rdf-syntax-ns#" xmlns:dc="http://purl.org/dc/elements/1.1/"
	 xmlns="http://www.w3.org/2000/svg" xmlns:xlink="http://www.w3.org/1999/xlink" x="0px" y="0px" viewBox="0.1 0 200 200"
	 enable-background="new 0.1 0 200 200" xml:space="preserve">
<g id="layer1" transform="translate(-85.037 -494.99)">
	<g id="g4678" transform="matrix(2.6305 0 0 2.6305 1394.6 -1640.5)">
		<g id="g4200" transform="matrix(1.25 0 0 -1.25 -897.76 966.38)">
			<g id="g4202">
				<g id="g4208">
					<g id="g4210">
						
							<radialGradient id="path4218_1_" cx="260.4996" cy="-33.9935" r="1" gradientTransform="matrix(126.2443 0 0 -126.2443 -32529.3027 -4191.1387)" gradientUnits="userSpaceOnUse">
							<stop  offset="0" style="stop-color:#456587"/>
							<stop  offset="1" style="stop-color:#00294B"/>
						</radialGradient>
						<path id="path4218" fill="url(#path4218_1_)" d="M347.4,123.6c-7.5,0-14.3-3.2-20.3-9.5c-5.4-5.7-7.2-10.3-7.2-15.9v-0.1
							c0-3,0.5-6.3,1.3-10.2c1.5-7.3,5.8-14.3,11.9-19.3c4.6-3.8,9.8-5.8,15.3-5.8c2.8,0,5.7,0.5,8.7,1.5
							c9.5,3.3,18.6,12.7,22.1,22.8c1.1,3.2,1.6,6.2,1.6,9.1v0.2c0,7.3-3.3,13.6-9.7,18.2c-7.7,5.5-15.1,8.5-22,9
							C348.5,123.6,348,123.6,347.4,123.6L347.4,123.6"/>
					</g>
				</g>
			</g>
		</g>
		<g id="g4220" transform="matrix(1.25 0 0 -1.25 -897.76 966.38)">
			<g>
				<g id="g4222">
					<g id="g4228" transform="translate(339.02 94.756)">
						<path id="path4230" fill="#FFFFFF" d="M0,0h-2.1l0-0.1c0-0.4-0.3-4-3.4-4c-2.8,0-4.3,2.5-4.3,7.6c0,5,1.4,7.6,4.3,7.6
							c3.2,0,3.4-3.8,3.4-4l0-0.1H0c0.2,0,0.4,0.1,0.5,0.2c0.1,0.1,0.2,0.3,0.2,0.5c0,1-0.5,5.9-6.3,5.9c-4.6,0-7-3.5-7-10.1
							c0-6.6,2.4-10.1,7-10.1c5.5,0,6.2,4.5,6.3,5.9c0,0.2-0.1,0.4-0.2,0.5C0.4-0.1,0.2,0,0,0"/>
					</g>
					<g id="g4232" transform="translate(369.29 99.509)">
						<path id="path4234" fill="#62C4DD" d="M0,0L0,0l-1.8,0.8c-1.7,0.8-2.3,1.5-2.3,2.8c0,1.7,1.3,2.9,3.1,2.9c1.1,0,2-0.2,3.1-1.4
							l0.1-0.1l1,0.9c0.6,0.5,0.4,1,0.2,1.3C2.4,8.3,0.9,8.9-0.9,8.9c-3.5,0-6-2.3-6-5.4c0-3.1,1.9-4.3,4-5.3L-1-2.5
							C0.8-3.3,1.7-4,1.7-5.8c0-2.4-2.2-3.1-3.5-3.1c-1.1,0-2.3,0.2-3.9,2l-0.1,0.1l-1-0.9c-0.5-0.5-0.5-0.8,0-1.5
							c1.4-1.8,3.4-2.1,4.8-2.1c3.1,0,6.3,1.9,6.3,5.6C4.4-2.6,2.7-1.1,0,0"/>
					</g>
					<g id="g4236" transform="translate(353 102.64)">
						<path id="path4238" fill="#62C4DD" d="M0,0c0,3.1-2.5,5.8-5.7,5.8c-1.5,0-2.8-0.6-3.8-1.5v1.1h-1.9c-0.6,0-0.8-0.4-0.8-0.8
							v-18.3c0-0.5,0.3-0.8,0.8-0.8h1.9v14.4c0,1.9,1.5,3.4,3.4,3.4s3.4-1.5,3.4-3.4v-14.4h1.9c0.5,0,0.8,0.3,0.8,0.8
							C0-13.7,0,0,0,0z"/>
					</g>
					<g id="g4240" transform="translate(362.74 107.06)">
						<path id="path4242" fill="#FFFFFF" d="M0,0c0.1,0.1,0.2,0.3,0.2,0.4C0.2,0.8,0,1-0.3,1.1c-0.5,0.2-1.1,0.3-1.7,0.3
							c-1.5,0-2.8-0.6-3.8-1.5V1h-1.9c-0.6,0-0.8-0.4-0.8-0.8v-18.3c0-0.5,0.3-0.8,0.8-0.8h1.9v14.4c0,1.9,1.5,3.4,3.4,3.4
							c0.5,0,1-0.1,1.4-0.3L0,0C0,0,0,0,0,0z"/>
					</g>
					<g id="g4244" transform="translate(347.43 68.4)">
						<path id="path4246" fill="#FFFFFF" d="M0,0c0-0.3-0.2-0.5-0.5-0.5C-0.8-0.5-1-0.3-1,0v34.5c0,0.3,0.2,0.5,0.5,0.5
							c0.3,0,0.5-0.2,0.5-0.5V0z"/>
					</g>
				</g>
			</g>
		</g>
	</g>
</g>
</svg>
