<?xml version="1.0" encoding="utf-8"?>
<!-- Generator: Adobe Illustrator 18.0.0, SVG Export Plug-In . SVG Version: 6.00 Build 0)  -->
<!DOCTYPE svg PUBLIC "-//W3C//DTD SVG 1.1//EN" "http://www.w3.org/Graphics/SVG/1.1/DTD/svg11.dtd">
<svg version="1.1" id="Layer_1" xmlns="http://www.w3.org/2000/svg" xmlns:xlink="http://www.w3.org/1999/xlink" x="0px" y="0px"
	 viewBox="0 0 200.5 200.5" enable-background="new 0 0 200.5 200.5" xml:space="preserve">
<polygon fill="#FFFFFF" points="189.9,55.1 145.3,10.4 100.2,0 55.1,10.4 10.4,55.1 0,100.2 10.4,145.3 55.1,189.9 100.2,200.5 
	145.3,189.9 189.9,145.3 200.5,100.2 "/>
<linearGradient id="SVGID_1_" gradientUnits="userSpaceOnUse" x1="47.4952" y1="447.3936" x2="171.9566" y2="447.3936" gradientTransform="matrix(0.8053 0 0 -0.8053 -38.2481 460.5165)">
	<stop  offset="0.175" style="stop-color:#EA1D2C"/>
	<stop  offset="0.9673" style="stop-color:#FFC809"/>
</linearGradient>
<polygon fill="url(#SVGID_1_)" points="100.2,0 100.2,200.5 55.1,190 10.4,145.3 0,100.2 10.4,55.1 55.1,10.4 "/>
<linearGradient id="SVGID_2_" gradientUnits="userSpaceOnUse" x1="171.9566" y1="447.3936" x2="296.4179" y2="447.3936" gradientTransform="matrix(0.8053 0 0 -0.8053 -38.2481 460.5165)">
	<stop  offset="0.1541" style="stop-color:#2DB5AE"/>
	<stop  offset="0.8842" style="stop-color:#124C96"/>
</linearGradient>
<polygon fill="url(#SVGID_2_)" points="100.2,0 100.2,200.5 145.3,190 189.9,145.3 200.5,100.2 189.9,55.1 145.3,10.4 "/>
<g>
	<g>
		<g>
			
				<linearGradient id="SVGID_3_" gradientUnits="userSpaceOnUse" x1="-587.9581" y1="451.1834" x2="-693.9586" y2="455.0282" gradientTransform="matrix(0.8053 0 0 -0.8053 612.8774 460.5165)">
				<stop  offset="0" style="stop-color:#FFFFFF"/>
				<stop  offset="1" style="stop-color:#FFFFFF;stop-opacity:0"/>
			</linearGradient>
			<polyline fill="url(#SVGID_3_)" points="55.1,189.9 100.2,0 10.4,145.3 100.2,100.5 10.4,55.1 			"/>
			
				<linearGradient id="SVGID_4_" gradientUnits="userSpaceOnUse" x1="1006.1488" y1="5.2944" x2="1018.288" y2="-25.6062" gradientTransform="matrix(0.8053 0 0 0.8053 -736.0611 199.7536)">
				<stop  offset="0" style="stop-color:#FFFFFF"/>
				<stop  offset="1" style="stop-color:#FFFFFF;stop-opacity:0"/>
			</linearGradient>
			<polygon fill="url(#SVGID_4_)" points="55.1,189.9 100.2,190.2 100.2,200.5 			"/>
			
				<linearGradient id="SVGID_5_" gradientUnits="userSpaceOnUse" x1="1006.1552" y1="-11265.7373" x2="1018.2944" y2="-11296.6387" gradientTransform="matrix(0.8053 0 0 -0.8053 -736.0611 -9075.9521)">
				<stop  offset="0" style="stop-color:#FFFFFF"/>
				<stop  offset="1" style="stop-color:#FFFFFF;stop-opacity:0"/>
			</linearGradient>
			<polygon fill="url(#SVGID_5_)" points="55.1,10.4 100.2,10.3 100.2,0 			"/>
			
				<linearGradient id="SVGID_6_" gradientUnits="userSpaceOnUse" x1="993.627" y1="397.1562" x2="956.3815" y2="365.1529" gradientTransform="matrix(0.8053 0 0 -0.8053 -736.0611 460.5165)">
				<stop  offset="0" style="stop-color:#FFFFFF"/>
				<stop  offset="1" style="stop-color:#FFFFFF;stop-opacity:0"/>
			</linearGradient>
			<polygon fill="url(#SVGID_6_)" points="10.4,145.3 55.1,189.9 42,156.4 			"/>
			
				<linearGradient id="SVGID_7_" gradientUnits="userSpaceOnUse" x1="994.4057" y1="28.6805" x2="956.4675" y2="-3.9184" gradientTransform="matrix(0.8053 0 0 0.8053 -736.0611 37.1418)">
				<stop  offset="0" style="stop-color:#FFFFFF"/>
				<stop  offset="1" style="stop-color:#FFFFFF;stop-opacity:0"/>
			</linearGradient>
			<polygon fill="url(#SVGID_7_)" points="10.4,55.1 55.1,10.4 42,44.5 			"/>
			
				<linearGradient id="SVGID_8_" gradientUnits="userSpaceOnUse" x1="895.1295" y1="517.5655" x2="951.1754" y2="478.8073" gradientTransform="matrix(0.8053 0 0 -0.8053 -736.0611 460.5165)">
				<stop  offset="0" style="stop-color:#FFFFFF"/>
				<stop  offset="1" style="stop-color:#FFFFFF;stop-opacity:0"/>
			</linearGradient>
			<polygon fill="url(#SVGID_8_)" points="10.4,100.2 42,44.5 10.4,55.1 			"/>
			
				<linearGradient id="SVGID_9_" gradientUnits="userSpaceOnUse" x1="895.2909" y1="95.701" x2="951.3368" y2="56.9427" gradientTransform="matrix(0.8053 0 0 0.8053 -736.0611 79.801)">
				<stop  offset="0" style="stop-color:#FFFFFF"/>
				<stop  offset="1" style="stop-color:#FFFFFF;stop-opacity:0"/>
			</linearGradient>
			<polygon fill="url(#SVGID_9_)" points="10.4,100.2 42,156.4 10.4,145.3 			"/>
			
				<linearGradient id="SVGID_10_" gradientUnits="userSpaceOnUse" x1="1019.7067" y1="509.015" x2="995.4156" y2="549.316" gradientTransform="matrix(0.8053 0 0 -0.8053 -736.0611 460.5165)">
				<stop  offset="0" style="stop-color:#FFFFFF"/>
				<stop  offset="1" style="stop-color:#FFFFFF;stop-opacity:0"/>
			</linearGradient>
			<polygon fill="url(#SVGID_10_)" points="55.1,10.4 42,44.5 100.2,10.3 			"/>
			
				<linearGradient id="SVGID_11_" gradientUnits="userSpaceOnUse" x1="1019.7842" y1="94.4154" x2="995.5507" y2="134.6214" gradientTransform="matrix(0.8053 0 0 0.8053 -736.0611 73.9366)">
				<stop  offset="0" style="stop-color:#FFFFFF"/>
				<stop  offset="1" style="stop-color:#FFFFFF;stop-opacity:0"/>
			</linearGradient>
			<polygon fill="url(#SVGID_11_)" points="55.1,189.9 42,156.4 100.2,190.2 			"/>
			
				<linearGradient id="SVGID_12_" gradientUnits="userSpaceOnUse" x1="916.3934" y1="510.0074" x2="970.7355" y2="459.5671" gradientTransform="matrix(0.8053 0 0 -0.8053 -736.0611 460.5165)">
				<stop  offset="0" style="stop-color:#FFFFFF"/>
				<stop  offset="1" style="stop-color:#FFFFFF;stop-opacity:0"/>
			</linearGradient>
			<polygon fill="url(#SVGID_12_)" points="10.4,100.2 55,100.4 42,44.5 			"/>
			
				<linearGradient id="SVGID_13_" gradientUnits="userSpaceOnUse" x1="1011.5541" y1="216.4507" x2="949.2554" y2="183.4855" gradientTransform="matrix(0.8053 0 0 0.8053 -736.0611 -30.0357)">
				<stop  offset="0" style="stop-color:#FFFFFF"/>
				<stop  offset="1" style="stop-color:#FFFFFF;stop-opacity:0"/>
			</linearGradient>
			<polygon fill="url(#SVGID_13_)" points="10.4,100.2 55,100.4 42,156.4 			"/>
			
				<linearGradient id="SVGID_14_" gradientUnits="userSpaceOnUse" x1="965.7203" y1="571.8148" x2="1030.0461" y2="512.1074" gradientTransform="matrix(0.8053 0 0 -0.8053 -736.0611 460.5165)">
				<stop  offset="0" style="stop-color:#FFFFFF"/>
				<stop  offset="1" style="stop-color:#FFFFFF;stop-opacity:0"/>
			</linearGradient>
			<polygon fill="url(#SVGID_14_)" points="42,44.5 100.2,64.7 100.2,10.3 			"/>
			
				<linearGradient id="SVGID_15_" gradientUnits="userSpaceOnUse" x1="1044.8527" y1="435.472" x2="984.2368" y2="495.2536" gradientTransform="matrix(0.8053 0 0 -0.8053 -736.0611 460.5165)">
				<stop  offset="0" style="stop-color:#FFFFFF"/>
				<stop  offset="1" style="stop-color:#FFFFFF;stop-opacity:0"/>
			</linearGradient>
			<polygon fill="url(#SVGID_15_)" points="100.2,64.5 55,100.4 42,44.5 			"/>
			
				<linearGradient id="SVGID_16_" gradientUnits="userSpaceOnUse" x1="965.6323" y1="196.9522" x2="1029.8691" y2="137.3274" gradientTransform="matrix(0.8053 0 0 0.8053 -736.0611 42.1058)">
				<stop  offset="0" style="stop-color:#FFFFFF"/>
				<stop  offset="1" style="stop-color:#FFFFFF;stop-opacity:0"/>
			</linearGradient>
			<polygon fill="url(#SVGID_16_)" points="42,156.4 100.2,136.4 100.2,190.2 			"/>
			
				<linearGradient id="SVGID_17_" gradientUnits="userSpaceOnUse" x1="1044.7253" y1="60.8358" x2="984.1795" y2="120.5484" gradientTransform="matrix(0.8053 0 0 0.8053 -736.0611 42.1058)">
				<stop  offset="0" style="stop-color:#FFFFFF"/>
				<stop  offset="1" style="stop-color:#FFFFFF;stop-opacity:0"/>
			</linearGradient>
			<polygon fill="url(#SVGID_17_)" points="100.2,136.4 73,114 55,100.4 42,156.4 			"/>
			
				<linearGradient id="SVGID_18_" gradientUnits="userSpaceOnUse" x1="1063.8677" y1="423.7522" x2="1009.9949" y2="425.7062" gradientTransform="matrix(0.8053 0 0 -0.8053 -736.0611 460.5165)">
				<stop  offset="0" style="stop-color:#FFFFFF"/>
				<stop  offset="1" style="stop-color:#FFFFFF;stop-opacity:0"/>
			</linearGradient>
			<polygon fill="url(#SVGID_18_)" points="55,100.4 100.2,100.7 100.2,136.4 73,114 			"/>
			
				<linearGradient id="SVGID_19_" gradientUnits="userSpaceOnUse" x1="1063.8721" y1="-4.9053" x2="1010.0038" y2="-2.9516" gradientTransform="matrix(0.8053 0 0 0.8053 -736.0611 85.802)">
				<stop  offset="0" style="stop-color:#FFFFFF"/>
				<stop  offset="1" style="stop-color:#FFFFFF;stop-opacity:0"/>
			</linearGradient>
			<polygon fill="url(#SVGID_19_)" points="55,100.4 100.2,100.7 100.2,64.5 			"/>
			
				<linearGradient id="SVGID_20_" gradientUnits="userSpaceOnUse" x1="1084.0542" y1="438.3339" x2="993.5436" y2="441.6168" gradientTransform="matrix(0.8053 0 0 -0.8053 -736.0611 460.5165)">
				<stop  offset="0" style="stop-color:#FFFFFF"/>
				<stop  offset="1" style="stop-color:#FFFFFF;stop-opacity:0"/>
			</linearGradient>
			<polygon fill="url(#SVGID_20_)" points="55,10.3 100.2,200.5 26.7,71.3 			"/>
			
				<linearGradient id="SVGID_21_" gradientUnits="userSpaceOnUse" x1="1087.1942" y1="437.7649" x2="983.4811" y2="441.5265" gradientTransform="matrix(0.8053 0 0 -0.8053 -736.0611 460.5165)">
				<stop  offset="0" style="stop-color:#FFFFFF"/>
				<stop  offset="1" style="stop-color:#FFFFFF;stop-opacity:0"/>
			</linearGradient>
			<polyline fill="url(#SVGID_21_)" points="100.2,64.5 73,114 10.4,145.3 100.2,136.4 			"/>
			
				<linearGradient id="SVGID_22_" gradientUnits="userSpaceOnUse" x1="1087.1575" y1="92.9399" x2="983.5028" y2="96.6995" gradientTransform="matrix(0.8053 0 0 0.8053 -736.0611 17.9251)">
				<stop  offset="0" style="stop-color:#FFFFFF"/>
				<stop  offset="1" style="stop-color:#FFFFFF;stop-opacity:0"/>
			</linearGradient>
			<polyline fill="url(#SVGID_22_)" points="100.2,136.4 73,114 55,100.4 10.4,55.3 100.2,64.5 			"/>
			
				<linearGradient id="SVGID_23_" gradientUnits="userSpaceOnUse" x1="7311.9648" y1="480.0643" x2="7349.6372" y2="481.4306" gradientTransform="matrix(-0.8053 0 0 -0.8053 6004.6934 460.5165)">
				<stop  offset="0" style="stop-color:#FFFFFF"/>
				<stop  offset="1" style="stop-color:#FFFFFF;stop-opacity:0"/>
			</linearGradient>
			<polyline fill="url(#SVGID_23_)" points="71.7,27.2 100.2,136.4 100.2,10.3 			"/>
			
				<linearGradient id="SVGID_24_" gradientUnits="userSpaceOnUse" x1="7307.9268" y1="83.2424" x2="7354.4551" y2="84.9299" gradientTransform="matrix(-0.8053 0 0 0.8053 6004.6934 69.82)">
				<stop  offset="0" style="stop-color:#FFFFFF"/>
				<stop  offset="1" style="stop-color:#FFFFFF;stop-opacity:0"/>
			</linearGradient>
			<polyline fill="url(#SVGID_24_)" points="63.9,181.1 100.2,74.7 100.2,200.5 			"/>
			
				<linearGradient id="SVGID_25_" gradientUnits="userSpaceOnUse" x1="7357.9775" y1="472.0704" x2="7421.8301" y2="474.3863" gradientTransform="matrix(-0.8053 0 0 -0.8053 6004.6934 460.5165)">
				<stop  offset="0" style="stop-color:#FFFFFF"/>
				<stop  offset="1" style="stop-color:#FFFFFF;stop-opacity:0"/>
			</linearGradient>
			<polyline fill="url(#SVGID_25_)" points="10.4,55.1 55,100.4 10.4,100.2 0,100.2 			"/>
			
				<linearGradient id="SVGID_26_" gradientUnits="userSpaceOnUse" x1="-169.8732" y1="474.1823" x2="-200.6651" y2="475.2992" gradientTransform="matrix(0.8053 0 0 -0.8053 174.4145 460.5165)">
				<stop  offset="0" style="stop-color:#FFFFFF"/>
				<stop  offset="1" style="stop-color:#FFFFFF;stop-opacity:0"/>
			</linearGradient>
			<polyline fill="url(#SVGID_26_)" points="10.4,55.1 26.7,71.6 10.4,100.2 			"/>
			
				<linearGradient id="SVGID_27_" gradientUnits="userSpaceOnUse" x1="7494.0811" y1="362.5558" x2="7416.3232" y2="457.3524" gradientTransform="matrix(-0.8053 0 0 -0.8053 6004.6934 460.5165)">
				<stop  offset="0" style="stop-color:#FFFFFF"/>
				<stop  offset="1" style="stop-color:#FFFFFF;stop-opacity:0"/>
			</linearGradient>
			<polyline opacity="0.3" fill="url(#SVGID_27_)" enable-background="new    " points="55,100.4 10.4,145.3 42.2,44.4 			"/>
			
				<linearGradient id="SVGID_28_" gradientUnits="userSpaceOnUse" x1="7493.895" y1="263.91" x2="7416.4346" y2="358.3438" gradientTransform="matrix(-0.8053 0 0 0.8053 6004.6934 -180.5829)">
				<stop  offset="0" style="stop-color:#FFFFFF"/>
				<stop  offset="1" style="stop-color:#FFFFFF;stop-opacity:0"/>
			</linearGradient>
			<polyline opacity="0.3" fill="url(#SVGID_28_)" enable-background="new    " points="55,100.4 10.4,55.1 42.2,155.5 			"/>
			
				<linearGradient id="SVGID_29_" gradientUnits="userSpaceOnUse" x1="7438.6567" y1="1025.1575" x2="7360.8906" y2="1119.9629" gradientTransform="matrix(-0.8053 0 0 -0.8053 6004.6934 1038.7511)">
				<stop  offset="0" style="stop-color:#FFFFFF"/>
				<stop  offset="1" style="stop-color:#FFFFFF;stop-opacity:0"/>
			</linearGradient>
			<polyline opacity="0.3" fill="url(#SVGID_29_)" enable-background="new    " points="99.6,145.1 55.1,189.9 86.7,89.1 			"/>
			
				<linearGradient id="SVGID_30_" gradientUnits="userSpaceOnUse" x1="7438.6924" y1="610.3699" x2="7360.9263" y2="705.1755" gradientTransform="matrix(-0.8053 0 0 0.8053 6004.6934 -504.298)">
				<stop  offset="0" style="stop-color:#FFFFFF"/>
				<stop  offset="1" style="stop-color:#FFFFFF;stop-opacity:0"/>
			</linearGradient>
			<polyline opacity="0.3" fill="url(#SVGID_30_)" enable-background="new    " points="99.6,55.4 55.1,10.4 86.7,111.4 			"/>
			
				<linearGradient id="SVGID_31_" gradientUnits="userSpaceOnUse" x1="7441.7583" y1="472.2512" x2="7371.1494" y2="487.1878" gradientTransform="matrix(-0.8053 0 0 -0.8053 6004.6934 460.5165)">
				<stop  offset="0" style="stop-color:#FFFFFF"/>
				<stop  offset="1" style="stop-color:#FFFFFF;stop-opacity:0"/>
			</linearGradient>
			<polyline fill="url(#SVGID_31_)" points="100.2,64.5 42,44.5 55,100.4 			"/>
			
				<linearGradient id="SVGID_32_" gradientUnits="userSpaceOnUse" x1="7443.1177" y1="-25.0358" x2="7372.3511" y2="-10.0656" gradientTransform="matrix(-0.8053 0 0 0.8053 6004.6934 145.4659)">
				<stop  offset="0" style="stop-color:#FFFFFF"/>
				<stop  offset="1" style="stop-color:#FFFFFF;stop-opacity:0"/>
			</linearGradient>
			<polyline fill="url(#SVGID_32_)" points="100.2,136.5 42,156.4 73,114 			"/>
			
				<linearGradient id="SVGID_33_" gradientUnits="userSpaceOnUse" x1="7330.7241" y1="471.906" x2="7370.4268" y2="524.7721" gradientTransform="matrix(-0.8053 0 0 -0.8053 6004.6934 460.5165)">
				<stop  offset="0" style="stop-color:#FFFFFF"/>
				<stop  offset="1" style="stop-color:#FFFFFF;stop-opacity:0"/>
			</linearGradient>
			<polyline fill="url(#SVGID_33_)" points="80.8,10.4 100.2,64.5 42,44.5 			"/>
			
				<linearGradient id="SVGID_34_" gradientUnits="userSpaceOnUse" x1="7330.7314" y1="-220.5287" x2="7370.4028" y2="-167.7043" gradientTransform="matrix(-0.8053 0 0 0.8053 6004.6934 298.0838)">
				<stop  offset="0" style="stop-color:#FFFFFF"/>
				<stop  offset="1" style="stop-color:#FFFFFF;stop-opacity:0"/>
			</linearGradient>
			<polyline fill="url(#SVGID_34_)" points="80.8,190.5 100.2,136.4 42,156.5 			"/>
			
				<linearGradient id="SVGID_35_" gradientUnits="userSpaceOnUse" x1="1694.3011" y1="-2404.9966" x2="1597.9906" y2="-2308.2495" gradientTransform="matrix(0.5694 -0.5694 0.5694 0.5694 437.2952 2314.9326)">
				<stop  offset="0" style="stop-color:#FFFFFF"/>
				<stop  offset="1" style="stop-color:#FFFFFF;stop-opacity:0"/>
			</linearGradient>
			<polyline opacity="0.3" fill="url(#SVGID_35_)" enable-background="new    " points="55,100.4 55.1,10.4 26.2,49.8 10.4,100.2 
							"/>
			
				<linearGradient id="SVGID_36_" gradientUnits="userSpaceOnUse" x1="1434.6361" y1="-2145.3315" x2="1338.65" y2="-2048.9102" gradientTransform="matrix(0.5694 0.5694 0.5694 -0.5694 437.2952 -1818.9098)">
				<stop  offset="0" style="stop-color:#FFFFFF"/>
				<stop  offset="1" style="stop-color:#FFFFFF;stop-opacity:0"/>
			</linearGradient>
			<polyline opacity="0.3" fill="url(#SVGID_36_)" enable-background="new    " points="55,100.4 55.1,189.9 27.8,151.4 10.4,100.2 
							"/>
			
				<linearGradient id="SVGID_37_" gradientUnits="userSpaceOnUse" x1="281.6468" y1="386.2087" x2="226.5293" y2="351.0849" gradientTransform="matrix(-0.8053 0 0 -0.8053 266.1034 460.5165)">
				<stop  offset="0" style="stop-color:#FFFFFF"/>
				<stop  offset="1" style="stop-color:#FFFFFF;stop-opacity:0"/>
			</linearGradient>
			<polyline fill="url(#SVGID_37_)" points="112.3,190.2 65,148.6 75.5,189.9 			"/>
			
				<linearGradient id="SVGID_38_" gradientUnits="userSpaceOnUse" x1="282.6702" y1="1056.0881" x2="227.3784" y2="1020.8533" gradientTransform="matrix(-0.8053 0 0 0.8053 266.1034 -799.4373)">
				<stop  offset="0" style="stop-color:#FFFFFF"/>
				<stop  offset="1" style="stop-color:#FFFFFF;stop-opacity:0"/>
			</linearGradient>
			<polyline fill="url(#SVGID_38_)" points="111.5,10.1 64.2,52.2 75.1,10.1 			"/>
			
				<linearGradient id="SVGID_39_" gradientUnits="userSpaceOnUse" x1="33.8573" y1="503.8472" x2="70.9048" y2="451.4696" gradientTransform="matrix(0.8053 0 0 -0.8053 -38.2481 460.5165)">
				<stop  offset="0" style="stop-color:#FFFFFF"/>
				<stop  offset="0.3566" style="stop-color:#FFFFFF;stop-opacity:0.6975"/>
				<stop  offset="1" style="stop-color:#FFFFFF;stop-opacity:0"/>
			</linearGradient>
			<polygon opacity="0.7" fill="url(#SVGID_39_)" enable-background="new    " points="0,100.2 10.4,100.2 10.4,55.1 			"/>
			
				<linearGradient id="SVGID_40_" gradientUnits="userSpaceOnUse" x1="33.8825" y1="-136.3447" x2="70.93" y2="-188.7226" gradientTransform="matrix(0.8053 0 0 0.8053 -38.2481 255.4615)">
				<stop  offset="0" style="stop-color:#FFFFFF"/>
				<stop  offset="0.3566" style="stop-color:#FFFFFF;stop-opacity:0.6975"/>
				<stop  offset="1" style="stop-color:#FFFFFF;stop-opacity:0"/>
			</linearGradient>
			<polygon opacity="0.7" fill="url(#SVGID_40_)" enable-background="new    " points="0,100.2 10.4,100.2 10.4,145.3 			"/>
		</g>
		<g>
			
				<linearGradient id="SVGID_41_" gradientUnits="userSpaceOnUse" x1="1263.8246" y1="451.1799" x2="1157.8242" y2="455.0247" gradientTransform="matrix(-0.8053 0 0 -0.8053 1078.7485 460.5165)">
				<stop  offset="0" style="stop-color:#FFFFFF"/>
				<stop  offset="1" style="stop-color:#FFFFFF;stop-opacity:0"/>
			</linearGradient>
			<polyline fill="url(#SVGID_41_)" points="145.3,189.9 100.2,0 189.9,145.3 100.2,100.5 190,55.1 			"/>
			
				<linearGradient id="SVGID_42_" gradientUnits="userSpaceOnUse" x1="2857.8469" y1="5.2613" x2="2869.9868" y2="-25.6393" gradientTransform="matrix(-0.8053 0 0 0.8053 2427.687 199.7536)">
				<stop  offset="0" style="stop-color:#FFFFFF"/>
				<stop  offset="1" style="stop-color:#FFFFFF;stop-opacity:0"/>
			</linearGradient>
			<polygon fill="url(#SVGID_42_)" points="145.3,189.9 100.2,190.2 100.2,200.5 			"/>
			
				<linearGradient id="SVGID_43_" gradientUnits="userSpaceOnUse" x1="2857.8533" y1="-11265.7705" x2="2869.9932" y2="-11296.6719" gradientTransform="matrix(-0.8053 0 0 -0.8053 2427.687 -9075.9521)">
				<stop  offset="0" style="stop-color:#FFFFFF"/>
				<stop  offset="1" style="stop-color:#FFFFFF;stop-opacity:0"/>
			</linearGradient>
			<polygon fill="url(#SVGID_43_)" points="145.3,10.4 100.2,10.3 100.2,0 			"/>
			
				<linearGradient id="SVGID_44_" gradientUnits="userSpaceOnUse" x1="2845.407" y1="397.1593" x2="2808.1616" y2="365.1559" gradientTransform="matrix(-0.8053 0 0 -0.8053 2427.687 460.5165)">
				<stop  offset="0" style="stop-color:#FFFFFF"/>
				<stop  offset="1" style="stop-color:#FFFFFF;stop-opacity:0"/>
			</linearGradient>
			<polygon fill="url(#SVGID_44_)" points="189.9,145.3 145.3,189.9 158.3,156.4 			"/>
			
				<linearGradient id="SVGID_45_" gradientUnits="userSpaceOnUse" x1="2846.1858" y1="28.6836" x2="2808.2478" y2="-3.9153" gradientTransform="matrix(-0.8053 0 0 0.8053 2427.687 37.1418)">
				<stop  offset="0" style="stop-color:#FFFFFF"/>
				<stop  offset="1" style="stop-color:#FFFFFF;stop-opacity:0"/>
			</linearGradient>
			<polygon fill="url(#SVGID_45_)" points="189.9,55.1 145.3,10.4 158.3,44.5 			"/>
			
				<linearGradient id="SVGID_46_" gradientUnits="userSpaceOnUse" x1="2746.9399" y1="517.6053" x2="2802.9858" y2="478.8471" gradientTransform="matrix(-0.8053 0 0 -0.8053 2427.687 460.5165)">
				<stop  offset="0" style="stop-color:#FFFFFF"/>
				<stop  offset="1" style="stop-color:#FFFFFF;stop-opacity:0"/>
			</linearGradient>
			<polygon fill="url(#SVGID_46_)" points="189.9,100.2 158.3,44.5 189.9,55.1 			"/>
			
				<linearGradient id="SVGID_47_" gradientUnits="userSpaceOnUse" x1="2747.1013" y1="95.7408" x2="2803.147" y2="56.9826" gradientTransform="matrix(-0.8053 0 0 0.8053 2427.687 79.801)">
				<stop  offset="0" style="stop-color:#FFFFFF"/>
				<stop  offset="1" style="stop-color:#FFFFFF;stop-opacity:0"/>
			</linearGradient>
			<polygon fill="url(#SVGID_47_)" points="189.9,100.2 158.3,156.4 189.9,145.3 			"/>
			
				<linearGradient id="SVGID_48_" gradientUnits="userSpaceOnUse" x1="2871.4849" y1="509.0124" x2="2847.1938" y2="549.3134" gradientTransform="matrix(-0.8053 0 0 -0.8053 2427.687 460.5165)">
				<stop  offset="0" style="stop-color:#FFFFFF"/>
				<stop  offset="1" style="stop-color:#FFFFFF;stop-opacity:0"/>
			</linearGradient>
			<polygon fill="url(#SVGID_48_)" points="145.3,10.4 158.3,44.5 100.2,10.3 			"/>
			
				<linearGradient id="SVGID_49_" gradientUnits="userSpaceOnUse" x1="2871.5627" y1="94.4127" x2="2847.3289" y2="134.6187" gradientTransform="matrix(-0.8053 0 0 0.8053 2427.687 73.9366)">
				<stop  offset="0" style="stop-color:#FFFFFF"/>
				<stop  offset="1" style="stop-color:#FFFFFF;stop-opacity:0"/>
			</linearGradient>
			<polygon fill="url(#SVGID_49_)" points="145.3,189.9 158.3,156.4 100.2,190.2 			"/>
			
				<linearGradient id="SVGID_50_" gradientUnits="userSpaceOnUse" x1="2768.2158" y1="510.0499" x2="2822.5574" y2="459.6097" gradientTransform="matrix(-0.8053 0 0 -0.8053 2427.687 460.5165)">
				<stop  offset="0" style="stop-color:#FFFFFF"/>
				<stop  offset="1" style="stop-color:#FFFFFF;stop-opacity:0"/>
			</linearGradient>
			<polygon fill="url(#SVGID_50_)" points="189.9,100.2 145.3,100.4 158.3,44.5 			"/>
			
				<linearGradient id="SVGID_51_" gradientUnits="userSpaceOnUse" x1="2863.3552" y1="216.4155" x2="2801.0569" y2="183.4502" gradientTransform="matrix(-0.8053 0 0 0.8053 2427.687 -30.0357)">
				<stop  offset="0" style="stop-color:#FFFFFF"/>
				<stop  offset="1" style="stop-color:#FFFFFF;stop-opacity:0"/>
			</linearGradient>
			<polygon fill="url(#SVGID_51_)" points="190,100.2 145.3,100.4 158.3,156.4 			"/>
			
				<linearGradient id="SVGID_52_" gradientUnits="userSpaceOnUse" x1="2817.5005" y1="571.8119" x2="2881.8257" y2="512.1044" gradientTransform="matrix(-0.8053 0 0 -0.8053 2427.687 460.5165)">
				<stop  offset="0" style="stop-color:#FFFFFF"/>
				<stop  offset="1" style="stop-color:#FFFFFF;stop-opacity:0"/>
			</linearGradient>
			<polygon fill="url(#SVGID_52_)" points="158.3,44.5 100.2,64.7 100.2,10.3 			"/>
			
				<linearGradient id="SVGID_53_" gradientUnits="userSpaceOnUse" x1="2896.6323" y1="435.4689" x2="2836.0166" y2="495.2505" gradientTransform="matrix(-0.8053 0 0 -0.8053 2427.687 460.5165)">
				<stop  offset="0" style="stop-color:#FFFFFF"/>
				<stop  offset="1" style="stop-color:#FFFFFF;stop-opacity:0"/>
			</linearGradient>
			<polygon fill="url(#SVGID_53_)" points="100.2,64.5 145.3,100.4 158.3,44.5 			"/>
			
				<linearGradient id="SVGID_54_" gradientUnits="userSpaceOnUse" x1="2817.4124" y1="196.9492" x2="2881.6489" y2="137.3244" gradientTransform="matrix(-0.8053 0 0 0.8053 2427.687 42.1058)">
				<stop  offset="0" style="stop-color:#FFFFFF"/>
				<stop  offset="1" style="stop-color:#FFFFFF;stop-opacity:0"/>
			</linearGradient>
			<polygon fill="url(#SVGID_54_)" points="158.3,156.4 100.2,136.4 100.2,190.2 			"/>
			
				<linearGradient id="SVGID_55_" gradientUnits="userSpaceOnUse" x1="2896.5054" y1="60.8328" x2="2835.959" y2="120.5454" gradientTransform="matrix(-0.8053 0 0 0.8053 2427.687 42.1058)">
				<stop  offset="0" style="stop-color:#FFFFFF"/>
				<stop  offset="1" style="stop-color:#FFFFFF;stop-opacity:0"/>
			</linearGradient>
			<polygon fill="url(#SVGID_55_)" points="100.2,136.4 127.3,114 145.3,100.4 158.3,156.4 			"/>
			
				<linearGradient id="SVGID_56_" gradientUnits="userSpaceOnUse" x1="2915.6504" y1="423.7487" x2="2861.7776" y2="425.7026" gradientTransform="matrix(-0.8053 0 0 -0.8053 2427.687 460.5165)">
				<stop  offset="0" style="stop-color:#FFFFFF"/>
				<stop  offset="1" style="stop-color:#FFFFFF;stop-opacity:0"/>
			</linearGradient>
			<polygon fill="url(#SVGID_56_)" points="145.3,100.4 100.2,100.7 100.2,136.4 127.3,114 			"/>
			
				<linearGradient id="SVGID_57_" gradientUnits="userSpaceOnUse" x1="2915.6545" y1="-4.9088" x2="2861.7864" y2="-2.9551" gradientTransform="matrix(-0.8053 0 0 0.8053 2427.687 85.802)">
				<stop  offset="0" style="stop-color:#FFFFFF"/>
				<stop  offset="1" style="stop-color:#FFFFFF;stop-opacity:0"/>
			</linearGradient>
			<polygon fill="url(#SVGID_57_)" points="145.3,100.4 100.2,100.7 100.2,64.5 			"/>
			
				<linearGradient id="SVGID_58_" gradientUnits="userSpaceOnUse" x1="2935.8367" y1="438.3337" x2="2845.3262" y2="441.6166" gradientTransform="matrix(-0.8053 0 0 -0.8053 2427.687 460.5165)">
				<stop  offset="0" style="stop-color:#FFFFFF"/>
				<stop  offset="1" style="stop-color:#FFFFFF;stop-opacity:0"/>
			</linearGradient>
			<polygon fill="url(#SVGID_58_)" points="145.3,10.3 100.2,200.5 173.6,71.3 			"/>
			
				<linearGradient id="SVGID_59_" gradientUnits="userSpaceOnUse" x1="2938.9766" y1="437.7614" x2="2835.2634" y2="441.5229" gradientTransform="matrix(-0.8053 0 0 -0.8053 2427.687 460.5165)">
				<stop  offset="0" style="stop-color:#FFFFFF"/>
				<stop  offset="1" style="stop-color:#FFFFFF;stop-opacity:0"/>
			</linearGradient>
			<polyline fill="url(#SVGID_59_)" points="100.2,64.5 127.3,114 190,145.3 100.2,136.4 			"/>
			
				<linearGradient id="SVGID_60_" gradientUnits="userSpaceOnUse" x1="2938.9402" y1="92.9397" x2="2835.2854" y2="96.6993" gradientTransform="matrix(-0.8053 0 0 0.8053 2427.687 17.9251)">
				<stop  offset="0" style="stop-color:#FFFFFF"/>
				<stop  offset="1" style="stop-color:#FFFFFF;stop-opacity:0"/>
			</linearGradient>
			<polyline fill="url(#SVGID_60_)" points="100.2,136.4 127.3,114 145.3,100.4 189.9,55.3 100.2,64.5 			"/>
			
				<linearGradient id="SVGID_61_" gradientUnits="userSpaceOnUse" x1="5460.1816" y1="480.0608" x2="5497.8545" y2="481.4271" gradientTransform="matrix(0.8053 0 0 -0.8053 -4313.0674 460.5165)">
				<stop  offset="0" style="stop-color:#FFFFFF"/>
				<stop  offset="1" style="stop-color:#FFFFFF;stop-opacity:0"/>
			</linearGradient>
			<polyline fill="url(#SVGID_61_)" points="128.7,27.2 100.2,136.4 100.2,10.3 			"/>
			
				<linearGradient id="SVGID_62_" gradientUnits="userSpaceOnUse" x1="5456.1436" y1="83.2388" x2="5502.6719" y2="84.9263" gradientTransform="matrix(0.8053 0 0 0.8053 -4313.0674 69.82)">
				<stop  offset="0" style="stop-color:#FFFFFF"/>
				<stop  offset="1" style="stop-color:#FFFFFF;stop-opacity:0"/>
			</linearGradient>
			<polyline fill="url(#SVGID_62_)" points="136.5,181.1 100.2,74.7 100.2,200.5 			"/>
			
				<linearGradient id="SVGID_63_" gradientUnits="userSpaceOnUse" x1="5506.1943" y1="472.0702" x2="5570.0469" y2="474.386" gradientTransform="matrix(0.8053 0 0 -0.8053 -4313.0674 460.5165)">
				<stop  offset="0" style="stop-color:#FFFFFF"/>
				<stop  offset="1" style="stop-color:#FFFFFF;stop-opacity:0"/>
			</linearGradient>
			<polyline fill="url(#SVGID_63_)" points="189.9,55.1 145.3,100.4 189.9,100.2 200.5,100.2 			"/>
			
				<linearGradient id="SVGID_64_" gradientUnits="userSpaceOnUse" x1="1681.9097" y1="474.1854" x2="1651.1178" y2="475.3023" gradientTransform="matrix(-0.8053 0 0 -0.8053 1517.2114 460.5165)">
				<stop  offset="0" style="stop-color:#FFFFFF"/>
				<stop  offset="1" style="stop-color:#FFFFFF;stop-opacity:0"/>
			</linearGradient>
			<polyline fill="url(#SVGID_64_)" points="189.9,55.1 173.7,71.6 189.9,100.2 			"/>
			
				<linearGradient id="SVGID_65_" gradientUnits="userSpaceOnUse" x1="5642.3032" y1="362.5592" x2="5564.5439" y2="457.3558" gradientTransform="matrix(0.8053 0 0 -0.8053 -4313.0674 460.5165)">
				<stop  offset="0" style="stop-color:#FFFFFF"/>
				<stop  offset="1" style="stop-color:#FFFFFF;stop-opacity:0"/>
			</linearGradient>
			<polyline opacity="0.3" fill="url(#SVGID_65_)" enable-background="new    " points="145.3,100.4 189.9,145.3 158.3,44.4 			"/>
			
				<linearGradient id="SVGID_66_" gradientUnits="userSpaceOnUse" x1="5642.1167" y1="263.9134" x2="5564.6558" y2="358.3473" gradientTransform="matrix(0.8053 0 0 0.8053 -4313.0674 -180.5829)">
				<stop  offset="0" style="stop-color:#FFFFFF"/>
				<stop  offset="1" style="stop-color:#FFFFFF;stop-opacity:0"/>
			</linearGradient>
			<polyline opacity="0.3" fill="url(#SVGID_66_)" enable-background="new    " points="145.3,100.4 189.9,55.1 158.3,155.5 			"/>
			
				<linearGradient id="SVGID_67_" gradientUnits="userSpaceOnUse" x1="5586.8237" y1="1025.1156" x2="5509.0576" y2="1119.921" gradientTransform="matrix(0.8053 0 0 -0.8053 -4313.0674 1038.7511)">
				<stop  offset="0" style="stop-color:#FFFFFF"/>
				<stop  offset="1" style="stop-color:#FFFFFF;stop-opacity:0"/>
			</linearGradient>
			<polyline opacity="0.3" fill="url(#SVGID_67_)" enable-background="new    " points="100.7,145.1 145.3,189.9 113.6,89.1 			"/>
			
				<linearGradient id="SVGID_68_" gradientUnits="userSpaceOnUse" x1="5586.8584" y1="610.3285" x2="5509.0923" y2="705.1341" gradientTransform="matrix(0.8053 0 0 0.8053 -4313.0674 -504.298)">
				<stop  offset="0" style="stop-color:#FFFFFF"/>
				<stop  offset="1" style="stop-color:#FFFFFF;stop-opacity:0"/>
			</linearGradient>
			<polyline opacity="0.3" fill="url(#SVGID_68_)" enable-background="new    " points="100.7,55.4 145.3,10.4 113.6,111.4 			"/>
			
				<linearGradient id="SVGID_69_" gradientUnits="userSpaceOnUse" x1="5589.9722" y1="472.234" x2="5519.3623" y2="487.1706" gradientTransform="matrix(0.8053 0 0 -0.8053 -4313.0674 460.5165)">
				<stop  offset="0" style="stop-color:#FFFFFF"/>
				<stop  offset="1" style="stop-color:#FFFFFF;stop-opacity:0"/>
			</linearGradient>
			<polyline fill="url(#SVGID_69_)" points="100.2,64.5 158.3,44.5 145.3,100.4 			"/>
			
				<linearGradient id="SVGID_70_" gradientUnits="userSpaceOnUse" x1="5591.3315" y1="-25.053" x2="5520.564" y2="-10.0827" gradientTransform="matrix(0.8053 0 0 0.8053 -4313.0674 145.4659)">
				<stop  offset="0" style="stop-color:#FFFFFF"/>
				<stop  offset="1" style="stop-color:#FFFFFF;stop-opacity:0"/>
			</linearGradient>
			<polyline fill="url(#SVGID_70_)" points="100.1,136.5 158.3,156.4 127.3,114 			"/>
			
				<linearGradient id="SVGID_71_" gradientUnits="userSpaceOnUse" x1="5478.8867" y1="471.9465" x2="5518.5894" y2="524.8127" gradientTransform="matrix(0.8053 0 0 -0.8053 -4313.0674 460.5165)">
				<stop  offset="0" style="stop-color:#FFFFFF"/>
				<stop  offset="1" style="stop-color:#FFFFFF;stop-opacity:0"/>
			</linearGradient>
			<polyline fill="url(#SVGID_71_)" points="119.5,10.4 100.2,64.5 158.3,44.5 			"/>
			
				<linearGradient id="SVGID_72_" gradientUnits="userSpaceOnUse" x1="5478.8955" y1="-220.4883" x2="5518.5654" y2="-167.6638" gradientTransform="matrix(0.8053 0 0 0.8053 -4313.0674 298.0838)">
				<stop  offset="0" style="stop-color:#FFFFFF"/>
				<stop  offset="1" style="stop-color:#FFFFFF;stop-opacity:0"/>
			</linearGradient>
			<polyline fill="url(#SVGID_72_)" points="119.5,190.5 100.2,136.4 158.3,156.5 			"/>
			
				<linearGradient id="SVGID_73_" gradientUnits="userSpaceOnUse" x1="3003.7173" y1="-1095.5802" x2="2907.407" y2="-998.8331" gradientTransform="matrix(-0.5694 -0.5694 -0.5694 0.5694 1254.3308 2314.9326)">
				<stop  offset="0" style="stop-color:#FFFFFF"/>
				<stop  offset="1" style="stop-color:#FFFFFF;stop-opacity:0"/>
			</linearGradient>
			<polyline opacity="0.3" fill="url(#SVGID_73_)" enable-background="new    " points="145.3,100.4 145.3,10.4 174.3,49.8 
				189.9,100.2 			"/>
			
				<linearGradient id="SVGID_74_" gradientUnits="userSpaceOnUse" x1="2744.0525" y1="-835.915" x2="2648.0664" y2="-739.4938" gradientTransform="matrix(-0.5694 0.5694 -0.5694 -0.5694 1254.3308 -1818.9098)">
				<stop  offset="0" style="stop-color:#FFFFFF"/>
				<stop  offset="1" style="stop-color:#FFFFFF;stop-opacity:0"/>
			</linearGradient>
			<polyline opacity="0.3" fill="url(#SVGID_74_)" enable-background="new    " points="145.3,100.4 145.3,189.9 172.5,151.4 
				189.9,100.2 			"/>
			
				<linearGradient id="SVGID_75_" gradientUnits="userSpaceOnUse" x1="-1570.1343" y1="386.2058" x2="-1625.2518" y2="351.082" gradientTransform="matrix(0.8053 0 0 -0.8053 1425.5226 460.5165)">
				<stop  offset="0" style="stop-color:#FFFFFF"/>
				<stop  offset="1" style="stop-color:#FFFFFF;stop-opacity:0"/>
			</linearGradient>
			<polyline fill="url(#SVGID_75_)" points="88.2,190.2 135.5,148.6 124.8,189.9 			"/>
			
				<linearGradient id="SVGID_76_" gradientUnits="userSpaceOnUse" x1="-1569.1108" y1="1056.0853" x2="-1624.4025" y2="1020.8505" gradientTransform="matrix(0.8053 0 0 0.8053 1425.5226 -799.4373)">
				<stop  offset="0" style="stop-color:#FFFFFF"/>
				<stop  offset="1" style="stop-color:#FFFFFF;stop-opacity:0"/>
			</linearGradient>
			<polyline fill="url(#SVGID_76_)" points="88.8,10.1 136.1,52.2 125.4,10.1 			"/>
			
				<linearGradient id="SVGID_77_" gradientUnits="userSpaceOnUse" x1="1885.6359" y1="503.8442" x2="1922.6832" y2="451.4666" gradientTransform="matrix(-0.8053 0 0 -0.8053 1729.8739 460.5165)">
				<stop  offset="0" style="stop-color:#FFFFFF"/>
				<stop  offset="0.3566" style="stop-color:#FFFFFF;stop-opacity:0.6975"/>
				<stop  offset="1" style="stop-color:#FFFFFF;stop-opacity:0"/>
			</linearGradient>
			<polygon opacity="0.7" fill="url(#SVGID_77_)" enable-background="new    " points="200.5,100.2 189.9,100.2 189.9,55.1 			"/>
			
				<linearGradient id="SVGID_78_" gradientUnits="userSpaceOnUse" x1="1885.6611" y1="-136.3477" x2="1922.7085" y2="-188.7255" gradientTransform="matrix(-0.8053 0 0 0.8053 1729.8739 255.4615)">
				<stop  offset="0" style="stop-color:#FFFFFF"/>
				<stop  offset="0.3566" style="stop-color:#FFFFFF;stop-opacity:0.6975"/>
				<stop  offset="1" style="stop-color:#FFFFFF;stop-opacity:0"/>
			</linearGradient>
			<polygon opacity="0.7" fill="url(#SVGID_78_)" enable-background="new    " points="200.5,100.2 189.9,100.2 189.9,145.3 			"/>
		</g>
	</g>
	
		<radialGradient id="SVGID_79_" cx="171.9566" cy="447.3936" r="59.3108" gradientTransform="matrix(0.8053 0 0 -0.8053 -38.2481 460.5165)" gradientUnits="userSpaceOnUse">
		<stop  offset="0" style="stop-color:#FFFFFF"/>
		<stop  offset="1" style="stop-color:#FFFFFF;stop-opacity:0"/>
	</radialGradient>
	<circle fill="url(#SVGID_79_)" cx="100.2" cy="100.2" r="47.8"/>
</g>
<g>
	<path d="M142.6,78.3c-1.2-2.1-2.8-3.8-4.8-5.3s-4.6-2.6-7.5-3.4c-1.9-0.6-5.6-0.9-9.1-0.9l0,0h-0.6c-4.7-0.1-9.1,0-9.6,0H94.5l0,0
		v2.6c5.6,0.9,10,4.8,10.1,12.2c0.4,13.4-11,13.7-13.8,13.8c-2.6,0.1-8.1,0.1-8.1,0.1h-7.9V71.1h7.9v-2.5H56.1v2.5H66V129h-9.8v2.6
		h26.6V129h-7.9v-28.8h7.9l6.5,0.1c5.6,0,16.5,2.5,16.5,15.1c0,9-5.7,12.8-11.3,13.4v2.8h26.5V129H119h-6v-26.3v-1.5v-1h5.9
		c7.6,0,11-0.6,11-0.6c4.6-0.9,10.3-3.2,13.2-8.8c0.7-1.6,1.2-3.5,1.2-5.4C144.3,82.7,143.7,80.4,142.6,78.3z M121,97.4h-7.8V71.1
		h7.8c5.7,0,14.7,2.1,14.7,13.2S126.7,97.4,121,97.4z"/>
</g>
</svg>
