<?xml version="1.0" encoding="utf-8"?>
<!-- Generator: Adobe Illustrator 18.0.0, SVG Export Plug-In . SVG Version: 6.00 Build 0)  -->
<!DOCTYPE svg PUBLIC "-//W3C//DTD SVG 1.1//EN" "http://www.w3.org/Graphics/SVG/1.1/DTD/svg11.dtd">
<svg version="1.1" id="Layer_1" xmlns="http://www.w3.org/2000/svg" xmlns:xlink="http://www.w3.org/1999/xlink" x="0px" y="0px"
	 viewBox="0 0 45.1 30.6" enable-background="new 0 0 45.1 30.6" xml:space="preserve">
<path fill="#FFFFFF" d="M0,29.3c0.1,0.7,0.7,1.3,1.7,1.2c2-0.1,4.1-0.3,6.1-0.5c1.5-0.1,1.8-0.5,1.8-2.1c0-1.8,0-3.6,0-5.5
	c0.3,0.1,0.5,0.2,0.7,0.3c1.2,0.5,2.4,1.1,3.6,1.6c0.4,0.2,0.5,0.4,0.6,0.8c0,1.3,0,2.7,0.1,4c0,0.9,0.6,1.5,1.4,1.5
	c0.7,0,1.2-0.6,1.3-1.5c0-0.2,0-0.3,0-0.5c0-1.4-0.1-2.9-0.1-4.3c0-1.1-0.5-1.7-1.5-2.1c-1-0.4-2-0.9-3-1.3
	c-0.2-0.1-0.4-0.3-0.4-0.5c0-1.1,0.1-2.1,0.2-3.2c0.1,0,0.1,0,0.2,0c0.3,0.4,0.6,0.9,1,1.2c0.3,0.3,0.7,0.6,1.1,0.6
	c2.1,0.2,4.3,0.3,6.4,0.4c0.3,0,0.8-0.2,1-0.4c0.5-0.7,1-1.5,1.5-2.2c-0.4-0.3-0.8-0.5-1.1-0.8c-0.2,0.4-0.4,0.7-0.7,1
	c-0.1,0.1-0.4,0.3-0.6,0.3c-1.5-0.1-3-0.2-4.5-0.2c-1,0-1.7-0.3-2.2-1.2c-0.7-1.1-1.6-1.9-2.1-3.1c-0.5-1.1-1.6-1.6-2.8-1.6
	c-1.1,0-1.9,0.4-2.5,1.4c-0.5,0.8-0.5,1.7-0.5,2.7c0.1,3.9,0.3,7.7,0.4,11.6c0,0.2,0,0.4,0,0.7c-1.8,0.1-3.6,0.3-5.4,0.4
	C0.6,27.9-0.1,28.5,0,29.3"/>
<path fill="#FFFFFF" d="M15.7,6.8c0.2,0,0.4,0,0.6-0.1c0.8-0.1,1-0.3,1-1c0-0.6-0.3-0.8-1.1-0.8c-3.2,0-6.4,0-9.6,0
	C6.2,4.9,6,5.2,6,5.6c0.1,0.3,0.4,0.6,0.6,1C6.8,6.8,7,7,7,7.2c0.3,1.7,1.2,2.9,2.9,3.5c1.6,0.6,3.1,0.3,4.3-0.9
	C15.1,9.1,15.6,8,15.7,6.8z"/>
<path fill="#FFFFFF" d="M16.4,4.5C16.3,2,14.1,0,11.4,0c-3.2,0-4.8,2.4-5,4.5C9.7,4.5,13,4.5,16.4,4.5z"/>
<path fill="#FFFFFF" d="M23.4,30.6c1.1,0,2.3,0,3.4,0c0.6,0,0.8-0.2,0.8-0.8c0-0.6,0-1.1,0-1.7c0-0.5-0.2-0.7-0.7-0.7
	c-2.3,0-4.6,0-6.9,0c-0.5,0-0.7,0.2-0.7,0.7c0,0.6,0,1.1,0,1.7c0,0.5,0.2,0.8,0.8,0.8C21.3,30.6,22.4,30.6,23.4,30.6z"/>
<path fill="#FFFFFF" d="M36.5,23.9c-1.1,0-2.2,0-3.3,0c-0.6,0-0.8,0.2-0.8,0.8c0,0.6,0,1.1,0,1.7c0,0.5,0.2,0.7,0.7,0.7
	c2.3,0,4.6,0,6.9,0c0.5,0,0.7-0.2,0.7-0.7c0-0.6,0-1.1,0-1.7c0-0.6-0.2-0.8-0.8-0.8C38.7,23.9,37.6,23.9,36.5,23.9z"/>
<path fill="#FFFFFF" d="M32.2,23.4C32.2,23.4,32.2,23.4,32.2,23.4c1.2,0,2.3,0,3.5,0c0.5,0,0.7-0.2,0.7-0.7c0-0.6,0-1.2,0-1.8
	c0-0.5-0.2-0.7-0.7-0.7c-2.2,0-4.5,0-6.7,0c-0.5,0-0.8,0.2-0.7,0.7c0,0.6,0,1.1,0,1.7c0,0.5,0.2,0.7,0.8,0.7
	C30,23.4,31.1,23.4,32.2,23.4z"/>
<path fill="#FFFFFF" d="M32.2,30.6c1.1,0,2.3,0,3.4,0c0.5,0,0.8-0.2,0.7-0.7c0-0.6,0-1.1,0-1.7c0-0.5-0.2-0.7-0.7-0.7
	c-2.3,0-4.5,0-6.8,0c-0.5,0-0.7,0.2-0.7,0.7c0,0.5,0,1.1,0,1.6c0,0.6,0.2,0.8,0.8,0.8C30.1,30.6,31.2,30.6,32.2,30.6z"/>
<path fill="#FFFFFF" d="M41,30.6c1.1,0,2.3,0,3.4,0c0.5,0,0.7-0.2,0.7-0.7c0-0.6,0-1.2,0-1.8c0-0.4-0.2-0.7-0.6-0.7
	c-2.3,0-4.6,0-6.9,0c-0.5,0-0.7,0.3-0.7,0.7c0,0.6,0,1.2,0,1.8c0,0.5,0.2,0.7,0.7,0.7C38.8,30.6,39.9,30.6,41,30.6z"/>
<path fill="#FFFFFF" d="M27.7,27.1c1.1,0,2.3,0,3.4,0c0.5,0,0.7-0.2,0.7-0.7c0-0.6,0-1.2,0-1.8c0-0.5-0.2-0.7-0.6-0.7
	c-2.3,0-4.6,0-6.9,0c-0.5,0-0.7,0.2-0.6,0.7c0,0.6,0,1.1,0,1.7c0,0.6,0.2,0.8,0.8,0.8C25.5,27,26.6,27.1,27.7,27.1z"/>
<path fill="#FFFFFF" d="M22.8,16.1c0.3,0.2,0.5,0.3,0.7,0.5c0.5-0.7,1-1.4,1.4-2.1c0.5,0.4,1,0.7,1.5,1c0.6,0.4,0.7,0.3,0.8-0.3
	c0.3-1.8,0.5-3.6,0.7-5.4c0-0.1-0.1-0.3-0.1-0.4c-0.1,0-0.2,0-0.2,0c-1.7,1-3.4,1.9-5.1,2.9c-0.4,0.2-0.3,0.5,0,0.7
	c0.5,0.3,1,0.7,1.6,1C23.7,14.7,23.2,15.3,22.8,16.1z"/>
<path d="M12.5,17.3c-0.1,1.1-0.1,2.1-0.2,3.2c0,0.2,0.3,0.4,0.4,0.5c1,0.5,2,0.9,3,1.3c1,0.4,1.5,1,1.5,2.1c0,1.4,0.1,2.9,0.1,4.3
	c0,0.2,0,0.3,0,0.5c0,0.9-0.5,1.5-1.3,1.5c-0.7,0-1.3-0.6-1.4-1.5c-0.1-1.3-0.1-2.7-0.1-4c0-0.4-0.1-0.6-0.6-0.8
	c-1.2-0.5-2.4-1.1-3.6-1.6c-0.2-0.1-0.4-0.2-0.7-0.3c0,1.9,0,3.7,0,5.5c0,1.6-0.3,2-1.8,2.1c-2,0.2-4.1,0.3-6.1,0.5
	C0.7,30.5,0.1,30,0,29.3c-0.1-0.8,0.6-1.4,1.5-1.4c1.8-0.1,3.6-0.3,5.4-0.4c0-0.2,0-0.5,0-0.7c-0.1-3.9-0.2-7.7-0.4-11.6
	c0-0.9,0-1.8,0.5-2.7c0.6-0.9,1.4-1.4,2.5-1.4c1.2,0,2.3,0.5,2.8,1.6c0.5,1.2,1.4,2.1,2.1,3.1c0.5,0.9,1.3,1.2,2.2,1.2
	c1.5,0,3,0.2,4.5,0.2c0.2,0,0.4-0.1,0.6-0.3c0.3-0.3,0.4-0.6,0.7-1c0.4,0.3,0.7,0.5,1.1,0.8c-0.5,0.8-0.9,1.5-1.5,2.2
	c-0.2,0.2-0.6,0.4-1,0.4c-2.1-0.1-4.3-0.2-6.4-0.4c-0.4,0-0.8-0.3-1.1-0.6c-0.4-0.3-0.7-0.8-1-1.2C12.6,17.3,12.5,17.3,12.5,17.3z"
	/>
<path d="M15.7,6.8c-0.1,1.2-0.6,2.3-1.5,3.1c-1.3,1.1-2.7,1.4-4.3,0.9C8.3,10.2,7.4,8.9,7,7.2C7,7,6.8,6.8,6.6,6.5
	C6.4,6.2,6.1,5.9,6,5.6C6,5.2,6.2,4.9,6.7,4.9c3.2,0,6.4,0,9.6,0c0.8,0,1.1,0.3,1.1,0.8c0,0.6-0.3,0.9-1,1
	C16.1,6.8,15.9,6.8,15.7,6.8z"/>
<path d="M16.4,4.5c-3.3,0-6.6,0-9.9,0C6.6,2.4,8.3,0,11.4,0C14.1,0,16.3,2,16.4,4.5z M8.5,1.6c2-0.9,4-0.9,6.1,0.2
	C13,0.2,10.2,0.1,8.5,1.6z"/>
<path d="M23.4,30.6c-1.1,0-2.2,0-3.3,0c-0.6,0-0.8-0.2-0.8-0.8c0-0.6,0-1.1,0-1.7c0-0.5,0.2-0.7,0.7-0.7c2.3,0,4.6,0,6.9,0
	c0.5,0,0.7,0.2,0.7,0.7c0,0.6,0,1.1,0,1.7c0,0.6-0.2,0.8-0.8,0.8C25.7,30.6,24.6,30.6,23.4,30.6z M22.5,27.9
	C22.5,27.9,22.5,27.9,22.5,27.9c-0.7-0.1-1.4-0.1-2.1-0.1c-0.2,0-0.4,0.3-0.5,0.5c-0.1,0.2,0,0.5,0,0.8c0.5-0.9,0.5-0.9,1.7-1.1
	C21.9,28,22.2,28,22.5,27.9z"/>
<path d="M36.5,23.9c1.1,0,2.2,0,3.3,0c0.6,0,0.8,0.2,0.8,0.8c0,0.6,0,1.1,0,1.7c0,0.5-0.2,0.7-0.7,0.7c-2.3,0-4.6,0-6.9,0
	c-0.5,0-0.7-0.2-0.7-0.7c0-0.6,0-1.1,0-1.7c0-0.6,0.2-0.8,0.8-0.8C34.3,23.9,35.4,23.9,36.5,23.9z M33,25.4c0.2-1.3,1.4-0.6,2.1-1
	c0,0-0.1-0.1-0.1-0.1c-0.4,0-0.7,0-1.1,0C32.9,24.3,32.8,24.3,33,25.4z"/>
<path d="M32.2,23.4c-1.1,0-2.2,0-3.3,0c-0.5,0-0.8-0.2-0.8-0.7c0-0.6,0-1.1,0-1.7c0-0.5,0.2-0.7,0.7-0.7c2.2,0,4.5,0,6.7,0
	c0.5,0,0.7,0.2,0.7,0.7c0,0.6,0,1.2,0,1.8c0,0.5-0.2,0.7-0.7,0.7C34.5,23.4,33.3,23.4,32.2,23.4C32.2,23.4,32.2,23.4,32.2,23.4z
	 M31.3,20.7C31.3,20.7,31.3,20.7,31.3,20.7c-0.5-0.1-0.9-0.1-1.4-0.1c-1.3,0-1.3,0-1.3,1.3c0,0,0,0.1,0.1,0.2c0-1,0.6-1.2,1.4-1.2
	C30.6,20.9,30.9,20.8,31.3,20.7z"/>
<path d="M32.2,30.6c-1.1,0-2.2,0-3.3,0c-0.6,0-0.8-0.2-0.8-0.8c0-0.5,0-1.1,0-1.6c0-0.5,0.2-0.7,0.7-0.7c2.3,0,4.5,0,6.8,0
	c0.5,0,0.7,0.2,0.7,0.7c0,0.6,0,1.1,0,1.7c0,0.5-0.2,0.8-0.7,0.7C34.5,30.6,33.4,30.6,32.2,30.6z M31.3,27.9
	C31.3,27.9,31.3,27.9,31.3,27.9c-0.7-0.1-1.4-0.1-2-0.1c-0.4,0-0.6,0.2-0.6,0.6c0,0.1,0,0.3,0,0.4c0,0.1,0,0.3,0,0.4
	c0.1-0.9,0.7-1.1,1.5-1.1C30.5,28.1,30.9,28,31.3,27.9z"/>
<path d="M41,30.6c-1.1,0-2.3,0-3.4,0c-0.5,0-0.7-0.2-0.7-0.7c0-0.6,0-1.2,0-1.8c0-0.4,0.2-0.7,0.7-0.7c2.3,0,4.6,0,6.9,0
	c0.4,0,0.6,0.2,0.6,0.7c0,0.6,0,1.2,0,1.8c0,0.5-0.2,0.7-0.7,0.7C43.3,30.6,42.2,30.6,41,30.6z M40,27.9C40,27.9,40,27.9,40,27.9
	c-0.7-0.1-1.4-0.1-2.1-0.1c-0.4,0-0.6,0.2-0.5,0.6c0,0.2,0,0.4,0,0.7c0.2-0.8,0.8-1,1.5-1C39.3,28.1,39.7,28,40,27.9z"/>
<path d="M27.7,27.1c-1.1,0-2.2,0-3.3,0c-0.6,0-0.8-0.2-0.8-0.8c0-0.6,0-1.1,0-1.7c0-0.5,0.2-0.7,0.6-0.7c2.3,0,4.6,0,6.9,0
	c0.5,0,0.7,0.2,0.6,0.7c0,0.6,0,1.2,0,1.8c0,0.5-0.2,0.7-0.7,0.7C30,27.1,28.9,27.1,27.7,27.1z M24.3,25.4c0.1-0.7,0.5-0.9,1.1-0.9
	c0.3,0,0.7-0.1,1-0.1c-0.4-0.1-0.8-0.1-1.2-0.1C24.1,24.3,24.1,24.3,24.3,25.4z"/>
<path d="M22.8,16.1c0.5-0.7,0.9-1.4,1.4-2.1c-0.6-0.4-1.1-0.7-1.6-1c-0.3-0.2-0.4-0.5,0-0.7c1.7-1,3.4-1.9,5.1-2.9
	c0.1,0,0.1,0,0.2,0c0,0.1,0.1,0.3,0.1,0.4c-0.2,1.8-0.5,3.6-0.7,5.4c-0.1,0.7-0.2,0.7-0.8,0.3c-0.5-0.3-1-0.6-1.5-1
	c-0.5,0.7-0.9,1.4-1.4,2.1C23.2,16.4,23,16.2,22.8,16.1z"/>
<path fill="#FFFFFF" d="M8.5,1.6c1.7-1.4,4.5-1.4,6.1,0.2C12.5,0.7,10.5,0.7,8.5,1.6z"/>
<path fill="#FFFFFF" d="M22.5,27.9c-0.3,0-0.6,0.1-0.9,0.1c-1.1,0.2-1.1,0.2-1.7,1.1c0-0.3-0.1-0.6,0-0.8c0.1-0.2,0.3-0.4,0.5-0.5
	C21.1,27.8,21.8,27.9,22.5,27.9C22.5,27.9,22.5,27.9,22.5,27.9z"/>
<path fill="#FFFFFF" d="M33,25.4c-0.2-1.1-0.1-1.1,0.9-1.1c0.4,0,0.7,0,1.1,0c0,0,0.1,0,0.1,0.1C34.5,24.7,33.3,24,33,25.4z"/>
<path fill="#FFFFFF" d="M31.3,20.7c-0.4,0.1-0.7,0.2-1.1,0.2c-0.8,0-1.4,0.2-1.4,1.2c-0.1-0.1-0.1-0.2-0.1-0.2c0-1.3,0-1.3,1.3-1.3
	C30.4,20.6,30.8,20.6,31.3,20.7C31.3,20.7,31.3,20.7,31.3,20.7z"/>
<path fill="#FFFFFF" d="M31.3,27.9c-0.4,0.1-0.7,0.1-1.1,0.1c-0.8,0-1.4,0.2-1.5,1.1c0-0.1,0-0.3,0-0.4c0-0.1,0-0.3,0-0.4
	c0-0.4,0.2-0.6,0.6-0.6C29.9,27.9,30.6,27.9,31.3,27.9C31.3,27.9,31.3,27.9,31.3,27.9z"/>
<path fill="#FFFFFF" d="M40,27.9c-0.4,0.1-0.7,0.1-1.1,0.1c-0.7,0-1.3,0.2-1.5,1c0-0.2,0-0.4,0-0.7c0-0.4,0.2-0.6,0.5-0.6
	C38.7,27.9,39.3,27.9,40,27.9C40,27.9,40,27.9,40,27.9z"/>
<path fill="#FFFFFF" d="M24.3,25.4c-0.2-1.1-0.2-1.2,0.9-1.2c0.4,0,0.8,0,1.2,0.1c-0.3,0-0.7,0.1-1,0.1
	C24.8,24.5,24.4,24.7,24.3,25.4z"/>
</svg>
