<?xml version="1.0" encoding="utf-8"?>
<!-- Generator: Adobe Illustrator 18.0.0, SVG Export Plug-In . SVG Version: 6.00 Build 0)  -->
<!DOCTYPE svg PUBLIC "-//W3C//DTD SVG 1.1//EN" "http://www.w3.org/Graphics/SVG/1.1/DTD/svg11.dtd">
<svg version="1.1" id="Layer_1" xmlns="http://www.w3.org/2000/svg" xmlns:xlink="http://www.w3.org/1999/xlink" x="0px" y="0px"
	 viewBox="0 0 97.6 98" enable-background="new 0 0 97.6 98" xml:space="preserve">
<g>
	<path fill="#FFFFFF" d="M59.1,60.6c9.4-9.4,18.7-18.7,28-28c1.8-1.8,1.8-4.1,0-5.9c-5.5-5.5-10.9-10.9-16.4-16.4
		c-1.8-1.8-4.1-1.8-5.9,0C48.7,26.4,32.7,42.4,16.7,58.4c-2.7,2.7-5.3,5.3-8,8c-1.2,1.2-1.7,2.7-1,4.2c0.4,0.8,1.1,1.6,1.8,2.2
		c5.1,5.2,10.3,10.3,15.4,15.4c0.4,0.4,0.7,0.7,1.1,1c1.6,1,3.4,0.7,4.9-0.8C40.4,79.4,49.8,70,59.1,60.6z M15,92.8
		c1.5-1.5,2.9-2.9,4.4-4.4c1-1,1-2.1,0-3.1c-2.2-2.3-4.5-4.5-6.8-6.8c-1-1-2.1-1-3.1,0c-2.9,2.9-5.9,5.9-8.8,8.8c-1,1-1,2.2,0,3.2
		c2.2,2.2,4.4,4.4,6.6,6.6c1.1,1.1,2.2,1.1,3.4,0C12.2,95.7,13.6,94.2,15,92.8z M35.7,36.5L35.7,36.5c1.6-1.6,3.2-3.2,4.9-4.9
		c0.8-0.8,0.7-1.8,0-2.5c-3.1-3.1-6.2-6.2-9.3-9.3c-0.5-0.5-1.2-0.7-1.9-0.4s-1.1,0.9-1.1,1.7c0,0.9,0,1.8,0,2.8
		c-0.1,5.3-0.2,10.5-0.3,15.8c0,1,0.3,1.7,1.1,2c0.8,0.3,1.5,0,2.1-0.6C32.7,39.6,34.2,38.1,35.7,36.5z M80.4,42.4
		c-1.6,1.6-3.2,3.2-4.8,4.8c-0.7,0.7-0.8,1.4-0.3,2.3c0.4,0.8,1.3,0.8,2,0.8c6.1-0.1,12.2-0.3,18.3-0.3c0.8,0,1.5-0.3,1.8-1.1
		c0.4-0.8,0.1-1.5-0.5-2.1c-3-3-6-6-9-9c-1-1-1.9-1-2.8,0C83.5,39.4,82,40.9,80.4,42.4z M16.5,55.8c1.6-1.6,3.2-3.2,4.8-4.8
		c0.8-0.8,0.8-1.8,0-2.6c-3.1-3.1-6.2-6.2-9.3-9.3c-0.6-0.6-1.2-0.7-1.9-0.4C9.4,39,9,39.5,9,40.3c-0.1,3.3-0.1,6.6-0.2,9.8
		c0,3-0.1,5.9-0.1,8.9c0,1,0.3,1.5,1,1.9c0.7,0.3,1.4,0.2,2.1-0.5C13.3,58.9,14.9,57.4,16.5,55.8z M61.1,61.8L61.1,61.8
		c-1.6,1.6-3.2,3.2-4.8,4.8c-0.9,0.9-0.6,2.4,0.6,2.9c0.4,0.1,0.8,0.1,1.2,0.1c6.1-0.1,12.2-0.2,18.2-0.3c1,0,1.6-0.3,1.9-1.1
		c0.3-0.8,0-1.4-0.6-2c-3-3-6-6-9-9c-0.9-0.9-1.9-0.9-2.8,0C64.2,58.7,62.7,60.2,61.1,61.8z M55.1,17.2L55.1,17.2
		c1.6-1.6,3.2-3.2,4.8-4.8c0.8-0.8,0.8-1.8,0-2.6c-3.1-3.1-6.1-6.1-9.2-9.2c-0.6-0.6-1.2-0.8-2-0.5C48,0.4,47.6,1,47.6,1.9
		c-0.1,3.3-0.1,6.5-0.2,9.8c0,3-0.1,6-0.1,9c0,0.8,0.3,1.4,1,1.7c0.8,0.3,1.5,0.1,2.1-0.5C52,20.3,53.6,18.7,55.1,17.2z M41.8,81.1
		c-1.6,1.6-3.2,3.2-4.8,4.8c-0.6,0.6-0.7,1.2-0.4,1.9c0.3,0.7,0.9,1.1,1.7,1.1c2.8,0,5.6-0.1,8.4-0.1c3.4-0.1,6.8-0.1,10.2-0.2
		c0.9,0,1.5-0.3,1.9-1.1c0.3-0.7,0.1-1.4-0.6-2.1c-3-3-6-6-9-9c-1-1-1.9-1-2.9,0C44.9,78,43.4,79.5,41.8,81.1z M80,17.5L80,17.5
		c1,1,1.9,1.9,2.9,2.9c1.3,1.3,2.7,2.7,4,4c0.5,0.5,1.3,0.5,1.6-0.1c0.2-0.4,0.3-0.9,0.2-1.3c-0.3-1.3-0.6-2.7-1.1-4
		c-1.5-3.3-3.9-5.9-6.9-7.9c-1.8-1.3-3.8-2.1-6.1-2.3c-0.6,0-1.2-0.1-1.5,0.6c-0.3,0.7,0.1,1.1,0.5,1.5C75.6,13.2,77.8,15.4,80,17.5
		z"/>
	<path fill="#2D2D2D" d="M59.1,60.6c-9.4,9.4-18.7,18.7-28,28c-1.4,1.4-3.3,1.7-4.9,0.8c-0.4-0.3-0.8-0.6-1.1-1
		C19.9,83.3,14.8,78.1,9.7,73c-0.7-0.7-1.4-1.4-1.8-2.2c-0.7-1.5-0.3-3,1-4.2c2.7-2.7,5.3-5.3,8-8C33,42.5,49,26.5,65,10.5
		c1.8-1.8,4.1-1.8,5.9,0c5.5,5.5,10.9,10.9,16.4,16.4c1.8,1.8,1.8,4.1,0,5.9C77.8,42,68.5,51.3,59.1,60.6z M39.4,58.1
		c4.2,4.2,10.9,4.2,15.1,0s4.2-10.9,0.1-15.1c-4.2-4.2-10.9-4.2-15.1,0S35.3,53.9,39.4,58.1z M35.2,77.4c4.2-4.2,4.2-10.9,0.1-15
		c-4.2-4.3-10.9-4.3-15.1,0c-4.1,4.2-4.2,10.9,0,15C24.3,81.6,31,81.6,35.2,77.4z M58.8,23.7c-4.2,4.2-4.2,10.9,0,15.1
		c4.2,4.2,10.9,4.2,15.1,0c4.2-4.2,4.2-10.8,0-15C69.7,19.5,63,19.5,58.8,23.7z M59.2,20.6c5.8-3.7,12.3-1.5,15.5,1.8
		c4.6,4.8,5.5,10.1,2.2,16.1c2.7-2.2,4.2-4.9,4.4-8.3c0.2-4.4-1.5-8.1-4.9-10.9c-3.2-2.6-6.8-3.6-10.8-2.8
		C62.9,17.1,60.8,18.5,59.2,20.6z M20.4,59.4c5.8-3.2,11.3-2.5,15.9,2.3c4.4,4.6,5,9.9,1.9,15.5c2.7-1.7,5-6.1,4.2-11.1
		c-0.9-5.3-5.2-9.7-10.7-10.8C27.5,54.3,22.5,56.1,20.4,59.4z M57.5,57.8c0.1-0.1,0.2-0.1,0.3-0.2c3.5-3,4.7-6.9,3.9-11.3
		c-1.4-6.9-8.2-11.8-15.1-10.5c-2.8,0.5-5.1,1.9-6.9,4.2c5.9-3.2,11.3-2.6,15.9,2.1C60.1,46.7,60.7,52.1,57.5,57.8z"/>
	<path fill="#2D2D2D" d="M15,92.8c-1.4,1.4-2.9,2.9-4.3,4.3c-1.1,1.1-2.2,1.1-3.4,0c-2.2-2.2-4.4-4.4-6.6-6.6c-1-1-1-2.2,0-3.2
		c2.9-2.9,5.9-5.9,8.8-8.8c1-1,2.1-1,3.1,0c2.3,2.2,4.5,4.5,6.8,6.8c1,1,1,2.1,0,3.1C18,89.9,16.5,91.3,15,92.8z"/>
	<path fill="#2D2D2D" d="M35.7,36.5c-1.5,1.5-3.1,3.1-4.6,4.6c-0.6,0.6-1.3,0.9-2.1,0.6c-0.8-0.3-1.1-1-1.1-2
		c0.1-5.3,0.2-10.5,0.3-15.8c0-0.9,0-1.8,0-2.8c0-0.8,0.4-1.4,1.1-1.7s1.4-0.1,1.9,0.4c3.1,3.1,6.2,6.2,9.3,9.3
		c0.8,0.8,0.8,1.8,0,2.5C39,33.3,37.4,34.9,35.7,36.5L35.7,36.5z"/>
	<path fill="#2D2D2D" d="M80.4,42.4c1.5-1.5,3.1-3.1,4.6-4.6c1-1,1.9-1,2.8,0c3,3,6,6,9,9c0.6,0.6,0.9,1.3,0.5,2.1
		c-0.3,0.8-1,1.1-1.8,1.1c-6.1,0.1-12.2,0.2-18.3,0.3c-0.8,0-1.5,0-2-0.8c-0.5-0.9-0.4-1.5,0.3-2.3C77.3,45.6,78.9,44,80.4,42.4z"/>
	<path fill="#2D2D2D" d="M16.5,55.8c-1.5,1.5-3.1,3.1-4.7,4.7c-0.7,0.7-1.3,0.8-2.1,0.5c-0.7-0.3-1-0.9-1-1.9c0-3,0.1-5.9,0.1-8.9
		c0-3.3,0.1-6.6,0.2-9.8c0-0.8,0.4-1.4,1.1-1.6c0.7-0.3,1.3-0.1,1.9,0.4c3.1,3.1,6.2,6.2,9.3,9.3c0.8,0.8,0.7,1.8,0,2.6
		C19.7,52.6,18,54.2,16.5,55.8z"/>
	<path fill="#2D2D2D" d="M61.1,61.8c1.5-1.5,3.1-3.1,4.7-4.7c1-0.9,1.9-1,2.8,0c3,3,6,6,9,9c0.6,0.6,0.8,1.2,0.6,2
		c-0.2,0.8-0.9,1.1-1.9,1.1c-6.1,0.1-12.2,0.2-18.2,0.3c-0.4,0-0.8,0-1.2-0.1c-1.2-0.4-1.5-2-0.6-2.9C57.9,65,59.5,63.4,61.1,61.8
		L61.1,61.8z"/>
	<path fill="#2D2D2D" d="M55.1,17.2c-1.5,1.5-3.1,3.1-4.7,4.7c-0.6,0.6-1.3,0.8-2.1,0.5c-0.8-0.3-1-1-1-1.7c0-3,0.1-6,0.1-9
		c0-3.3,0.1-6.5,0.2-9.8c0-0.9,0.4-1.5,1.1-1.8c0.8-0.3,1.4-0.1,2,0.5c3.1,3.1,6.1,6.1,9.1,9.1c0.8,0.8,0.8,1.8,0,2.6
		C58.3,14,56.7,15.6,55.1,17.2L55.1,17.2z"/>
	<path fill="#2D2D2D" d="M41.8,81.1c1.5-1.5,3.1-3.1,4.6-4.6c1-1,1.9-1,2.9,0c3,3,6,6,9,9c0.7,0.7,0.9,1.4,0.6,2.1
		c-0.4,0.8-1,1.1-1.9,1.1c-3.4,0-6.8,0.1-10.2,0.2c-2.8,0-5.6,0.1-8.4,0.1c-0.8,0-1.4-0.4-1.7-1.1c-0.3-0.7-0.1-1.4,0.4-1.9
		C38.6,84.3,40.2,82.7,41.8,81.1z"/>
	<path fill="#2D2D2D" d="M80,17.5c-2.2-2.2-4.3-4.3-6.5-6.5c-0.4-0.4-0.8-0.9-0.5-1.5c0.3-0.7,1-0.7,1.5-0.6
		c2.2,0.2,4.3,1.1,6.1,2.3c3,2.1,5.5,4.6,7,7.9c0.6,1.3,0.8,2.6,1.1,4c0.1,0.4,0,0.9-0.2,1.3c-0.3,0.6-1.1,0.6-1.6,0.1
		c-1.3-1.3-2.7-2.7-4-4C81.9,19.5,80.9,18.5,80,17.5L80,17.5z"/>
	<path fill="#993D00" d="M39.4,58.1c-4.2-4.2-4.1-10.9,0.1-15.1c4.2-4.2,10.9-4.2,15.1,0s4.1,10.9-0.1,15.1
		C50.3,62.3,43.6,62.3,39.4,58.1z"/>
	<path fill="#2C2C2C" d="M35.2,77.4c-4.2,4.2-10.9,4.2-15.1,0c-4.1-4.1-4.1-10.9,0-15c4.2-4.2,10.9-4.2,15.1,0
		C39.4,66.5,39.4,73.3,35.2,77.4z"/>
	<path fill="#2B2B2B" d="M58.8,23.7c4.2-4.2,10.9-4.2,15.1,0c4.2,4.2,4.2,10.8,0,15c-4.2,4.2-10.9,4.2-15.1,0
		C54.6,34.6,54.6,27.9,58.8,23.7z"/>
	<path fill="#181818" d="M59.2,20.6c1.6-2.2,3.8-3.5,6.4-4.1c4.1-0.8,7.7,0.1,10.8,2.8c3.4,2.8,5.1,6.4,4.9,10.9
		c-0.2,3.4-1.7,6.2-4.4,8.3c3.2-6,2.4-11.3-2.2-16.1C71.5,19.2,64.9,17,59.2,20.6z"/>
	<path fill="#181818" d="M20.4,59.4c2.1-3.2,7-5,11.3-4.2c5.5,1.2,9.8,5.6,10.7,10.8c0.8,5-1.5,9.4-4.2,11.1
		c3.1-5.6,2.5-10.9-1.9-15.5C31.7,56.9,26.3,56.2,20.4,59.4z"/>
	<path fill="#181818" d="M57.5,57.8c3.2-5.7,2.6-11.1-2-15.7c-4.6-4.6-10-5.3-15.9-2.1c1.8-2.3,4.1-3.7,6.9-4.2
		c7-1.3,13.8,3.6,15.1,10.5c0.9,4.5-0.3,8.3-3.9,11.3C57.8,57.7,57.6,57.8,57.5,57.8z"/>
</g>
</svg>
