<?xml version="1.0" encoding="utf-8"?>
<!-- Generator: Adobe Illustrator 18.0.0, SVG Export Plug-In . SVG Version: 6.00 Build 0)  -->
<!DOCTYPE svg PUBLIC "-//W3C//DTD SVG 1.1//EN" "http://www.w3.org/Graphics/SVG/1.1/DTD/svg11.dtd">
<svg version="1.1" id="Layer_1" xmlns="http://www.w3.org/2000/svg" xmlns:xlink="http://www.w3.org/1999/xlink" x="0px" y="0px"
	 viewBox="0 0 2308.4 2061.5" enable-background="new 0 0 2308.4 2061.5" xml:space="preserve">
<path fill="#FFFFFF" d="M951.8,1166.1c1.3,9.2,9.2,17.2,22.4,15.8c26.4-1.3,54.1-4,80.5-6.6c19.8-1.3,23.8-6.6,23.8-27.7
	c0-23.8,0-47.5,0-72.6c4,1.3,6.6,2.6,9.2,4c15.8,6.6,31.7,14.5,47.5,21.1c5.3,2.6,6.6,5.3,7.9,10.6c0,17.2,0,35.6,1.3,52.8
	c0,11.9,7.9,19.8,18.5,19.8c9.2,0,15.8-7.9,17.2-19.8c0-2.6,0-4,0-6.6c0-18.5-1.3-38.3-1.3-56.8c0-14.5-6.6-22.4-19.8-27.7
	s-26.4-11.9-39.6-17.2c-2.6-1.3-5.3-4-5.3-6.6c0-14.5,1.3-27.7,2.6-42.2c1.3,0,1.3,0,2.6,0c4,5.3,7.9,11.9,13.2,15.8
	c4,4,9.2,7.9,14.5,7.9c27.7,2.6,56.8,4,84.5,5.3c4,0,10.6-2.6,13.2-5.3c6.6-9.2,13.2-19.8,19.8-29c-5.3-4-10.6-6.6-14.5-10.6
	c-2.6,5.3-5.3,9.2-9.2,13.2c-1.3,1.3-5.3,4-7.9,4c-19.8-1.3-39.6-2.6-59.4-2.6c-13.2,0-22.4-4-29-15.8
	c-9.2-14.5-21.1-25.1-27.7-40.9c-6.6-14.5-21.1-21.1-37-21.1c-14.5,0-25.1,5.3-33,18.5c-6.6,10.6-6.6,22.4-6.6,35.6
	c1.3,51.5,4,101.6,5.3,153.1c0,2.6,0,5.3,0,9.2c-23.8,1.3-47.5,4-71.3,5.3C959.8,1147.6,950.5,1155.5,951.8,1166.1"/>
<path fill="#FFFFFF" d="M1159.1,869.1c2.6,0,5.3,0,7.9-1.3c10.6-1.3,13.2-4,13.2-13.2c0-7.9-4-10.6-14.5-10.6
	c-42.2,0-84.5,0-126.7,0c-5.3,0-7.9,4-7.9,9.2c1.3,4,5.3,7.9,7.9,13.2c2.6,2.6,5.3,5.3,5.3,7.9c4,22.4,15.8,38.3,38.3,46.2
	c21.1,7.9,40.9,4,56.8-11.9C1151.1,899.4,1157.7,884.9,1159.1,869.1z"/>
<path fill="#FFFFFF" d="M1168.3,838.7c-1.3-33-30.4-59.4-66-59.4c-42.2,0-63.4,31.7-66,59.4C1079.9,838.7,1123.4,838.7,1168.3,838.7
	z"/>
<path fill="#FFFFFF" d="M1260.7,1183.2c14.5,0,30.4,0,44.9,0c7.9,0,10.6-2.6,10.6-10.6c0-7.9,0-14.5,0-22.4c0-6.6-2.6-9.2-9.2-9.2
	c-30.4,0-60.7,0-91.1,0c-6.6,0-9.2,2.6-9.2,9.2c0,7.9,0,14.5,0,22.4c0,6.6,2.6,10.6,10.6,10.6
	C1233,1183.2,1247.5,1183.2,1260.7,1183.2z"/>
<path fill="#FFFFFF" d="M1433.6,1094.8c-14.5,0-29,0-43.6,0c-7.9,0-10.6,2.6-10.6,10.6s0,14.5,0,22.4c0,6.6,2.6,9.2,9.2,9.2
	c30.4,0,60.7,0,91.1,0c6.6,0,9.2-2.6,9.2-9.2c0-7.9,0-14.5,0-22.4s-2.6-10.6-10.6-10.6C1462.6,1094.8,1448.1,1094.8,1433.6,1094.8z"
	/>
<path fill="#FFFFFF" d="M1376.9,1088.2L1376.9,1088.2c15.8,0,30.4,0,46.2,0c6.6,0,9.2-2.6,9.2-9.2c0-7.9,0-15.8,0-23.8
	c0-6.6-2.6-9.2-9.2-9.2c-29,0-59.4,0-88.4,0c-6.6,0-10.6,2.6-9.2,9.2c0,7.9,0,14.5,0,22.4c0,6.6,2.6,9.2,10.6,9.2
	C1347.8,1088.2,1362.3,1088.2,1376.9,1088.2z"/>
<path fill="#FFFFFF" d="M1376.9,1183.2c14.5,0,30.4,0,44.9,0c6.6,0,10.6-2.6,9.2-9.2c0-7.9,0-14.5,0-22.4c0-6.6-2.6-9.2-9.2-9.2
	c-30.4,0-59.4,0-89.8,0c-6.6,0-9.2,2.6-9.2,9.2s0,14.5,0,21.1c0,7.9,2.6,10.6,10.6,10.6C1349.1,1183.2,1363.7,1183.2,1376.9,1183.2z
	"/>
<path fill="#FFFFFF" d="M1493,1183.2c14.5,0,30.4,0,44.9,0c6.6,0,9.2-2.6,9.2-9.2c0-7.9,0-15.8,0-23.8c0-5.3-2.6-9.2-7.9-9.2
	c-30.4,0-60.7,0-91.1,0c-6.6,0-9.2,4-9.2,9.2c0,7.9,0,15.8,0,23.8c0,6.6,2.6,9.2,9.2,9.2C1464,1183.2,1478.5,1183.2,1493,1183.2z"/>
<path fill="#FFFFFF" d="M1317.5,1137c14.5,0,30.4,0,44.9,0c6.6,0,9.2-2.6,9.2-9.2c0-7.9,0-15.8,0-23.8c0-6.6-2.6-9.2-7.9-9.2
	c-30.4,0-60.7,0-91.1,0c-6.6,0-9.2,2.6-7.9,9.2c0,7.9,0,14.5,0,22.4c0,7.9,2.6,10.6,10.6,10.6
	C1288.4,1135.7,1302.9,1137,1317.5,1137z"/>
<path fill="#FFFFFF" d="M1252.8,991.8c4,2.6,6.6,4,9.2,6.6c6.6-9.2,13.2-18.5,18.5-27.7c6.6,5.3,13.2,9.2,19.8,13.2
	c7.9,5.3,9.2,4,10.6-4c4-23.8,6.6-47.5,9.2-71.3c0-1.3-1.3-4-1.3-5.3c-1.3,0-2.6,0-2.6,0c-22.4,13.2-44.9,25.1-67.3,38.3
	c-5.3,2.6-4,6.6,0,9.2c6.6,4,13.2,9.2,21.1,13.2C1264.7,973.3,1258.1,981.3,1252.8,991.8z"/>
<path d="M1116.8,1007.7c-1.3,14.5-1.3,27.7-2.6,42.2c0,2.6,4,5.3,5.3,6.6c13.2,6.6,26.4,11.9,39.6,17.2s19.8,13.2,19.8,27.7
	c0,18.5,1.3,38.3,1.3,56.8c0,2.6,0,4,0,6.6c0,11.9-6.6,19.8-17.2,19.8c-9.2,0-17.2-7.9-18.5-19.8c-1.3-17.2-1.3-35.6-1.3-52.8
	c0-5.3-1.3-7.9-7.9-10.6c-15.8-6.6-31.7-14.5-47.5-21.1c-2.6-1.3-5.3-2.6-9.2-4c0,25.1,0,48.8,0,72.6c0,21.1-4,26.4-23.8,27.7
	c-26.4,2.6-54.1,4-80.5,6.6c-13.2-1.3-21.1-7.9-22.4-17.2c-1.3-10.6,7.9-18.5,19.8-18.5c23.8-1.3,47.5-4,71.3-5.3c0-2.6,0-6.6,0-9.2
	c-1.3-51.5-2.6-101.6-5.3-153.1c0-11.9,0-23.8,6.6-35.6c7.9-11.9,18.5-18.5,33-18.5c15.8,0,30.4,6.6,37,21.1
	c6.6,15.8,18.5,27.7,27.7,40.9c6.6,11.9,17.2,15.8,29,15.8c19.8,0,39.6,2.6,59.4,2.6c2.6,0,5.3-1.3,7.9-4c4-4,5.3-7.9,9.2-13.2
	c5.3,4,9.2,6.6,14.5,10.6c-6.6,10.6-11.9,19.8-19.8,29c-2.6,2.6-7.9,5.3-13.2,5.3c-27.7-1.3-56.8-2.6-84.5-5.3
	c-5.3,0-10.6-4-14.5-7.9c-5.3-4-9.2-10.6-13.2-15.8C1118.1,1007.7,1116.8,1007.7,1116.8,1007.7z"/>
<path d="M1159.1,869.1c-1.3,15.8-7.9,30.4-19.8,40.9c-17.2,14.5-35.6,18.5-56.8,11.9c-21.1-7.9-33-25.1-38.3-47.5
	c0-2.6-2.6-5.3-5.3-9.2c-2.6-4-6.6-7.9-7.9-11.9c0-5.3,2.6-9.2,9.2-9.2c42.2,0,84.5,0,126.7,0c10.6,0,14.5,4,14.5,10.6
	c0,7.9-4,11.9-13.2,13.2C1164.3,869.1,1161.7,869.1,1159.1,869.1z"/>
<path d="M1168.3,838.7c-43.6,0-87.1,0-130.7,0c1.3-27.7,23.8-59.4,64.7-59.4C1137.9,779.3,1167,805.7,1168.3,838.7z M1064,800.4
	c26.4-11.9,52.8-11.9,80.5,2.6C1123.4,782,1086.5,780.6,1064,800.4z"/>
<path d="M1260.7,1183.2c-14.5,0-29,0-43.6,0c-7.9,0-10.6-2.6-10.6-10.6c0-7.9,0-14.5,0-22.4c0-6.6,2.6-9.2,9.2-9.2
	c30.4,0,60.7,0,91.1,0c6.6,0,9.2,2.6,9.2,9.2c0,7.9,0,14.5,0,22.4c0,7.9-2.6,10.6-10.6,10.6
	C1291.1,1183.2,1276.5,1183.2,1260.7,1183.2z M1248.8,1147.6L1248.8,1147.6c-9.2-1.3-18.5-1.3-27.7-1.3c-2.6,0-5.3,4-6.6,6.6
	c-1.3,2.6,0,6.6,0,10.6c6.6-11.9,6.6-11.9,22.4-14.5C1240.9,1148.9,1244.9,1148.9,1248.8,1147.6z"/>
<path d="M1433.6,1094.8c14.5,0,29,0,43.6,0c7.9,0,10.6,2.6,10.6,10.6s0,14.5,0,22.4c0,6.6-2.6,9.2-9.2,9.2c-30.4,0-60.7,0-91.1,0
	c-6.6,0-9.2-2.6-9.2-9.2c0-7.9,0-14.5,0-22.4s2.6-10.6,10.6-10.6C1404.6,1094.8,1419.1,1094.8,1433.6,1094.8z M1387.4,1114.6
	c2.6-17.2,18.5-7.9,27.7-13.2l-1.3-1.3c-5.3,0-9.2,0-14.5,0C1386.1,1100.1,1384.8,1100.1,1387.4,1114.6z"/>
<path d="M1376.9,1088.2c-14.5,0-29,0-43.6,0c-6.6,0-10.6-2.6-10.6-9.2c0-7.9,0-14.5,0-22.4c0-6.6,2.6-9.2,9.2-9.2
	c29,0,59.4,0,88.4,0c6.6,0,9.2,2.6,9.2,9.2c0,7.9,0,15.8,0,23.8c0,6.6-2.6,9.2-9.2,9.2C1407.2,1088.2,1391.4,1088.2,1376.9,1088.2
	L1376.9,1088.2z M1365,1052.5L1365,1052.5c-6.6-1.3-11.9-1.3-18.5-1.3c-17.2,0-17.2,0-17.2,17.2c0,0,0,1.3,1.3,2.6
	c0-13.2,7.9-15.8,18.5-15.8C1355.7,1055.2,1359.7,1053.9,1365,1052.5z"/>
<path d="M1376.9,1183.2c-14.5,0-29,0-43.6,0c-7.9,0-10.6-2.6-10.6-10.6c0-6.6,0-14.5,0-21.1c0-6.6,2.6-9.2,9.2-9.2
	c30.4,0,59.4,0,89.8,0c6.6,0,9.2,2.6,9.2,9.2c0,7.9,0,14.5,0,22.4c0,6.6-2.6,10.6-9.2,9.2
	C1407.2,1183.2,1392.7,1183.2,1376.9,1183.2z M1365,1147.6L1365,1147.6c-9.2-1.3-18.5-1.3-26.4-1.3c-5.3,0-7.9,2.6-7.9,7.9
	c0,1.3,0,4,0,5.3c0,1.3,0,4,0,5.3c1.3-11.9,9.2-14.5,19.8-14.5C1354.4,1150.2,1359.7,1148.9,1365,1147.6z"/>
<path d="M1493,1183.2c-14.5,0-30.4,0-44.9,0c-6.6,0-9.2-2.6-9.2-9.2c0-7.9,0-15.8,0-23.8c0-5.3,2.6-9.2,9.2-9.2
	c30.4,0,60.7,0,91.1,0c5.3,0,7.9,2.6,7.9,9.2c0,7.9,0,15.8,0,23.8c0,6.6-2.6,9.2-9.2,9.2C1523.4,1183.2,1508.8,1183.2,1493,1183.2z
	 M1479.8,1147.6L1479.8,1147.6c-9.2-1.3-18.5-1.3-27.7-1.3c-5.3,0-7.9,2.6-6.6,7.9c0,2.6,0,5.3,0,9.2c2.6-10.6,10.6-13.2,19.8-13.2
	C1470.6,1150.2,1475.8,1148.9,1479.8,1147.6z"/>
<path d="M1317.5,1137c-14.5,0-29,0-43.6,0c-7.9,0-10.6-2.6-10.6-10.6c0-7.9,0-14.5,0-22.4c0-6.6,2.6-9.2,7.9-9.2
	c30.4,0,60.7,0,91.1,0c6.6,0,9.2,2.6,7.9,9.2c0,7.9,0,15.8,0,23.8c0,6.6-2.6,9.2-9.2,9.2C1347.8,1137,1333.3,1137,1317.5,1137z
	 M1272.6,1114.6c1.3-9.2,6.6-11.9,14.5-11.9c4,0,9.2-1.3,13.2-1.3c-5.3-1.3-10.6-1.3-15.8-1.3
	C1269.9,1100.1,1269.9,1100.1,1272.6,1114.6z"/>
<path d="M1252.8,991.8c6.6-9.2,11.9-18.5,18.5-27.7c-7.9-5.3-14.5-9.2-21.1-13.2c-4-2.6-5.3-6.6,0-9.2
	c22.4-13.2,44.9-25.1,67.3-38.3c1.3,0,1.3,0,2.6,0c0,1.3,1.3,4,1.3,5.3c-2.6,23.8-6.6,47.5-9.2,71.3c-1.3,9.2-2.6,9.2-10.6,4
	c-6.6-4-13.2-7.9-19.8-13.2c-6.6,9.2-11.9,18.5-18.5,27.7C1258.1,995.8,1255.4,993.1,1252.8,991.8z"/>
<path fill="#FFFFFF" d="M1064,800.4c22.4-18.5,59.4-18.5,80.5,2.6C1116.8,788.6,1090.4,788.6,1064,800.4z"/>
<path fill="#FFFFFF" d="M1248.8,1147.6c-4,0-7.9,1.3-11.9,1.3c-14.5,2.6-14.5,2.6-22.4,14.5c0-4-1.3-7.9,0-10.6
	c1.3-2.6,4-5.3,6.6-6.6C1230.3,1146.3,1239.6,1147.6,1248.8,1147.6L1248.8,1147.6z"/>
<path fill="#FFFFFF" d="M1387.4,1114.6c-2.6-14.5-1.3-14.5,11.9-14.5c5.3,0,9.2,0,14.5,0c0,0,1.3,0,1.3,1.3
	C1407.2,1105.3,1391.4,1096.1,1387.4,1114.6z"/>
<path fill="#FFFFFF" d="M1365,1052.5c-5.3,1.3-9.2,2.6-14.5,2.6c-10.6,0-18.5,2.6-18.5,15.8c-1.3-1.3-1.3-2.6-1.3-2.6
	c0-17.2,0-17.2,17.2-17.2C1353.1,1051.2,1358.4,1051.2,1365,1052.5L1365,1052.5z"/>
<path fill="#FFFFFF" d="M1365,1147.6c-5.3,1.3-9.2,1.3-14.5,1.3c-10.6,0-18.5,2.6-19.8,14.5c0-1.3,0-4,0-5.3s0-4,0-5.3
	c0-5.3,2.6-7.9,7.9-7.9C1346.5,1147.6,1355.7,1147.6,1365,1147.6L1365,1147.6z"/>
<path fill="#FFFFFF" d="M1479.8,1147.6c-5.3,1.3-9.2,1.3-14.5,1.3c-9.2,0-17.2,2.6-19.8,13.2c0-2.6,0-5.3,0-9.2
	c0-5.3,2.6-7.9,6.6-7.9C1462.6,1147.6,1470.6,1147.6,1479.8,1147.6L1479.8,1147.6z"/>
<path fill="#FFFFFF" d="M1272.6,1114.6c-2.6-14.5-2.6-15.8,11.9-15.8c5.3,0,10.6,0,15.8,1.3c-4,0-9.2,1.3-13.2,1.3
	C1279.2,1102.7,1273.9,1105.3,1272.6,1114.6z"/>
<path fill="#FFFFFF" d="M47.7,1722.8c1.4,1.4,1.4,1.4,1.4,1.4c8.4,42.1,16.8,82.8,25.3,124.9c1.4,4.2,0,9.8-2.8,14
	c-15.4,23.9-30.9,46.3-46.3,70.2c-2.8,4.2-5.6,8.4-5.6,12.6c-2.8,14,8.4,25.3,22.5,19.7c5.6-1.4,9.8-5.6,14-9.8
	c19.7-28.1,37.9-56.1,56.1-84.2c2.8-5.6,4.2-12.6,4.2-19.7c0-7-2.8-14-4.2-21.1c-1.4-11.2-4.2-21.1-5.6-32.3
	c12.6,15.4,23.9,32.3,35.1,49.1c0,2.8,0,5.6,0,8.4c2.8,18.2,5.6,35.1,8.4,53.3c1.4,12.6,2.8,25.3,5.6,37.9
	c1.4,11.2,12.6,19.7,22.5,18.2c9.8-1.4,16.8-9.8,16.8-22.5c0-1.4,0-2.8,0-4.2c-4.2-25.3-8.4-50.5-11.2-75.8
	c-1.4-18.2-7-33.7-18.2-47.7c-7-9.8-14-19.7-19.7-30.9c-2.8-4.2-4.2-7-4.2-9.8c-1.4-37.9-4.2-74.4-5.6-113.7c5.6,0,11.2,0,16.8,0
	c9.8,0,22.5,2.8,30.9-2.8c28.1-16.8,54.7-35.1,80-53.3c8.4-5.6,8.4-14,2.8-22.5c-2.8-4.2-5.6-9.8-8.4-14
	c-14-21.1-26.7-42.1-42.1-63.2c-7,4.2-12.6,7-19.7,11.2c12.6,23.9,25.3,44.9,37.9,67.4c-21.1,14-40.7,28.1-61.8,42.1
	c-2.8,1.4-5.6,2.8-8.4,2.8c-25.3,0-49.1,0-74.4-1.4c-21.1,0-36.5,7-44.9,26.7c-12.6,28.1-26.7,54.7-40.7,82.8
	c-2.8,5.6-2.8,11.2-2.8,16.8c4.2,29.5,8.4,57.5,12.6,85.6c1.4,12.6,7,18.2,15.4,18.2s15.4-8.4,16.8-18.2c0-2.8,0-5.6,0-8.4
	c-2.8-19.7-4.2-40.7-9.8-60.4C32.3,1752.2,37.9,1738.2,47.7,1722.8z"/>
<path fill="#FFFFFF" d="M303.2,1529.1c9.8,2.8,18.2,4.2,26.7,5.6c7,1.4,8.4,4.2,8.4,12.6c0,96.8,0,192.3,0,289.1c0,7,0,14,7,18.2
	c2.8,1.4,4.2,7,4.2,9.8c1.4,11.2,7,15.4,18.2,15.4c11.2-129.1,22.5-258.3,33.7-388.8c-21.1,0-42.1,0-63.2,0c0,11.2,0,22.5,0,35.1
	c-11.2-4.2-21.1-7-32.3-11.2C306,1520.6,304.6,1524.8,303.2,1529.1z"/>
<path fill="#FFFFFF" d="M220.4,1941.7c50.5,0,99.7,0,150.2,0c0-12.6,0-23.9,0-35.1c0-21.1-1.4-22.5-21.1-25.3
	c-1.4-5.6-1.4-11.2-2.8-15.4c-1.4-8.4-7-12.6-16.8-12.6c-22.5,0-46.3,0-68.8,0c-8.4,0-12.6,2.8-14,9.8c-1.4,5.6-2.8,12.6-4.2,18.2
	c-16.8,1.4-19.7,4.2-21.1,14C219,1910.8,220.4,1926.3,220.4,1941.7z"/>
<path fill="#FFFFFF" d="M137.6,1569.8c4.2,0,7,0,9.8,0c9.8-1.4,14-4.2,12.6-12.6c0-9.8-7-11.2-14-11.2c-12.6,0-25.3,0-37.9,0
	c-30.9,0-61.8,0-94,0c-5.6,0-8.4,4.2-5.6,9.8c1.4,5.6,7,11.2,12.6,15.4l1.4-1.4c5.6,33.7,25.3,53.3,56.1,54.7
	C109.5,1624.5,130.5,1606.3,137.6,1569.8z"/>
<path fill="#FFFFFF" d="M12.6,1540.3c44.9,0,91.2,0,136.1,0c-2.8-33.7-29.5-60.4-63.2-61.8C44.9,1477.1,18.2,1501,12.6,1540.3z"/>
<path fill="#FFFFFF" d="M369.1,1950.1c-50.5,0-99.7,0-148.8,0c0,12.6,4.2,16.8,15.4,16.8c39.3,0,78.6,0,117.9,0
	C364.9,1967,369.1,1962.8,369.1,1950.1z"/>
<path fill="#FFFFFF" d="M158.6,1523.4c25.3-2.8,64.6-22.5,80-37.9c-1.4-2.8-2.8-5.6-4.2-8.4c-2.8-8.4-8.4-8.4-14-2.8
	c-7,5.6-15.4,9.8-23.9,14C179.7,1496.8,168.4,1509.4,158.6,1523.4z"/>
<path fill="#FFFFFF" d="M289.1,1537.5c12.6-7,16.8-26.7,9.8-36.5C287.7,1508,283.5,1526.2,289.1,1537.5z"/>
<path d="M47.7,1722.8c-9.8,15.4-15.4,29.5-11.2,47.7c4.2,19.7,7,39.3,9.8,60.4c0,2.8,1.4,5.6,0,8.4c-1.4,11.2-8.4,18.2-16.8,18.2
	s-14-7-16.8-18.2c-4.2-28.1-8.4-57.5-12.6-85.6c0-5.6,0-11.2,2.8-16.8c12.6-28.1,26.7-54.7,40.7-82.8c9.8-19.7,23.9-26.7,44.9-26.7
	c25.3,1.4,49.1,1.4,74.4,1.4c2.8,0,5.6-1.4,8.4-2.8c21.1-14,40.7-26.7,61.8-42.1c-12.6-22.5-25.3-44.9-37.9-67.4
	c7-4.2,12.6-7,19.7-11.2c14,21.1,28.1,42.1,42.1,63.2c2.8,4.2,5.6,9.8,8.4,14c5.6,8.4,5.6,16.8-2.8,22.5
	c-26.7,18.2-53.3,36.5-80,53.3c-8.4,4.2-19.7,1.4-30.9,2.8c-5.6,0-11.2,0-16.8,0c1.4,37.9,4.2,75.8,5.6,113.7c0,2.8,1.4,7,4.2,9.8
	c7,9.8,12.6,21.1,19.7,30.9c11.2,14,16.8,29.5,18.2,47.7c2.8,25.3,7,50.5,11.2,75.8c0,1.4,0,2.8,0,4.2c0,12.6-7,21.1-16.8,22.5
	c-9.8,1.4-19.7-7-22.5-18.2c-2.8-12.6-4.2-25.3-5.6-37.9c-2.8-18.2-5.6-35.1-8.4-53.3c0-2.8-1.4-5.6-2.8-7
	c-11.2-16.8-22.5-33.7-35.1-49.1c1.4,11.2,4.2,21.1,5.6,32.3c1.4,7,4.2,14,4.2,21.1s-1.4,14-4.2,19.7
	c-18.2,28.1-36.5,56.1-56.1,84.2c-2.8,4.2-8.4,8.4-14,9.8c-14,4.2-25.3-5.6-22.5-19.7c1.4-4.2,2.8-9.8,5.6-12.6
	c15.4-23.9,30.9-46.3,46.3-70.2c2.8-4.2,2.8-9.8,2.8-14c-4.2-43.5-12.6-84.2-21.1-126.3C49.1,1724.2,49.1,1724.2,47.7,1722.8z"/>
<path d="M303.2,1529.1c1.4-4.2,1.4-8.4,2.8-14c9.8,2.8,21.1,7,32.3,11.2c0-12.6,0-22.5,0-35.1c21.1,0,40.7,0,63.2,0
	c-11.2,129.1-22.5,258.3-33.7,388.8c-9.8,0-16.8-2.8-18.2-15.4c0-4.2-1.4-8.4-4.2-9.8c-7-5.6-7-11.2-7-18.2c0-96.8,0-192.3,0-289.1
	c0-7-1.4-11.2-9.8-12.6C321.4,1533.3,313,1530.5,303.2,1529.1z"/>
<path d="M220.4,1941.7c0-15.4,0-30.9,0-46.3c0-11.2,4.2-12.6,21.1-14c1.4-5.6,2.8-12.6,4.2-18.2c1.4-7,5.6-9.8,14-9.8
	c22.5,0,46.3,0,68.8,0c9.8,0,15.4,2.8,16.8,12.6c1.4,5.6,2.8,11.2,2.8,15.4c19.7,2.8,21.1,4.2,21.1,25.3c0,11.2,0,22.5,0,35.1
	C320,1941.7,270.9,1941.7,220.4,1941.7z M254.1,1882.8c28.1,0,54.7,0,82.8,0c-1.4-4.2-1.4-8.4-2.8-12.6c-23.9,0-46.3,1.4-68.8,0
	C255.5,1870.1,252.6,1872.9,254.1,1882.8z"/>
<path d="M137.6,1569.8c-7,36.5-28.1,54.7-60.4,54.7c-29.5,0-50.5-21.1-56.1-54.7l-1.4,1.4c-4.2-4.2-9.8-9.8-11.2-15.4
	c-2.8-5.6,0-9.8,8.4-9.8c30.9,0,61.8,0,94,0c12.6,0,25.3,0,37.9,0c7,0,14,1.4,14,11.2c0,8.4-2.8,11.2-12.6,12.6
	C144.6,1569.8,141.8,1569.8,137.6,1569.8z"/>
<path d="M12.6,1540.3c5.6-39.3,32.3-63.2,73-61.8c33.7,1.4,60.4,26.7,61.8,61.8C102.5,1540.3,57.5,1540.3,12.6,1540.3z M37.9,1501
	c29.5-12.6,57.5-12.6,85.6,1.4C103.9,1481.3,61.8,1479.9,37.9,1501z"/>
<path d="M369.1,1950.1c0,12.6-4.2,16.8-15.4,16.8c-39.3,0-78.6,0-117.9,0c-11.2,0-15.4-4.2-15.4-16.8
	C269.5,1950.1,318.6,1950.1,369.1,1950.1z"/>
<path d="M158.6,1523.4c11.2-15.4,22.5-26.7,37.9-35.1c8.4-4.2,15.4-8.4,23.9-14c7-5.6,11.2-4.2,14,2.8c1.4,2.8,2.8,5.6,4.2,8.4
	C223.2,1501,183.9,1520.6,158.6,1523.4z"/>
<path d="M289.1,1537.5c-5.6-11.2-1.4-29.5,9.8-36.5C306,1510.8,301.8,1530.5,289.1,1537.5z"/>
<path fill="#FFFFFF" d="M254.1,1882.8c-1.4-9.8,1.4-12.6,12.6-12.6c22.5,1.4,44.9,0,68.8,0c0,4.2,1.4,7,2.8,12.6
	C308.8,1882.8,282.1,1882.8,254.1,1882.8z"/>
<path fill="#FFFFFF" d="M37.9,1501c22.5-21.1,66-19.7,85.6,1.4C95.4,1488.3,67.4,1488.3,37.9,1501z"/>
<path fill="#FFFFFF" d="M2131.7,1509.8c7.4-8.7,14.8-16,21-24.7c7.4-8.7,14.8-16,21-24.7c8.7-8.7,7.4-19.7,0-27.1
	c-8.7-6.1-18.5-5-27.1,3.7c-16,19.7-33.3,40.7-50.6,60.5c-6.1,8.7-7.4,14.8-1.3,23.4c16,26,33.3,51.8,49.4,77.8
	c1.3,2.4,3.7,5,6.1,6.1c5,2.4,5,6.1,5,11.1c0,77.8,0,155.5,0,233.3c0,16,0,30.8,0,46.9c0,8.7,2.4,16,9.9,19.7
	c7.4,6.1,16,7.4,24.7,2.4c8.7-5,12.3-12.3,12.3-22.2c0-49.4,0-97.5,0-146.8c0-2.4,0-6.1,0-8.7c3.7,0,7.4,0,9.9,0
	c0,22.2,0,44.4,0,65.4c0,29.7,0,59.2,0,90.1c0,18.5,17.3,29.7,33.3,22.2c9.9-5,13.6-13.6,13.6-24.7c0-90.1,0-180.2,0-270.3
	c0-8.7-2.4-17.3,7.4-23.4c1.3,0,1.3-2.4,1.3-3.7c12.3-28.4,26-55.5,38.2-83.9c3.7-8.7,3.7-17.3-3.7-24.7
	c-17.3-17.3-33.3-35.8-50.6-54.3c-7.4-8.7-18.5-8.7-26-2.4c-7.4,7.4-7.4,18.5,0,27.1c13.6,13.6,26,27.1,39.5,40.7
	c2.4,2.4,3.7,5,1.3,8.7c-9.9,18.5-21,38.2-30.8,56.8c-1.3,2.4-5,5-7.4,5c-14.8,0-30.8,0-45.7,0c-2.4,0-5-1.3-6.1-2.4
	C2161.3,1550.6,2146.5,1530.8,2131.7,1509.8z"/>
<path fill="#FFFFFF" d="M2302,1393.8c-61.7-56.8-158-48.1-204.9,0C2165,1393.8,2232.9,1393.8,2302,1393.8z"/>
<path fill="#FFFFFF" d="M2195.9,1465.4c-19.7,2.4-40.7,16-44.4,40.7c-2.4,14.8,2.4,27.1,11.1,39.5c6.1,8.7,6.1,8.7,13.6,1.3
	c18.5-18.5,38.2-38.2,56.8-56.8c7.4-7.4,6.1-8.7-2.4-11.1c-1.3-1.3-2.4-2.4-5-2.4C2215.6,1472.8,2204.6,1469.1,2195.9,1465.4z"/>
<path fill="#FFFFFF" d="M2237.8,1498.8c-18.5,18.5-38.2,37-56.8,55.5c13.6,14.8,39.5,13.6,55.5-2.4
	C2251.4,1538.2,2251.4,1511.1,2237.8,1498.8z"/>
<path fill="#FFFFFF" d="M2216.8,1430.9c-1.3-1.3-1.3-6.1-3.7-8.7c-3.7-3.7-5-7.4-5-12.3c0-6.1-3.7-8.7-8.7-8.7
	c-5,1.3-9.9,2.4-9.9,8.7c0,5-1.3,8.7-5,13.6c-5,6.1-5,13.6,0,21c5,6.1,12.3,8.7,19.7,6.1C2211.9,1448.2,2216.8,1442,2216.8,1430.9z"
	/>
<path d="M2131.7,1509.8c14.8,21,29.7,40.7,44.4,60.5c1.3,1.3,3.7,2.4,6.1,2.4c14.8,0,30.8,0,45.7,0c2.4,0,6.1-2.4,7.4-5
	c9.9-18.5,21-38.2,30.8-56.8c2.4-3.7,1.3-6.1-1.3-8.7c-13.6-13.6-27.1-27.1-39.5-40.7c-7.4-8.7-8.7-19.7,0-27.1
	c7.4-7.4,18.5-6.1,26,2.4c17.3,17.3,33.3,35.8,50.6,54.3c7.4,7.4,7.4,14.8,3.7,24.7c-12.3,28.4-26,55.5-38.2,83.9
	c0,1.3-1.3,2.4-1.3,3.7c-8.7,6.1-7.4,14.8-7.4,23.4c0,90.1,0,180.2,0,270.3c0,11.1-3.7,19.7-13.6,24.7c-16,8.7-33.3-3.7-33.3-22.2
	c0-29.7,0-59.2,0-90.1c0-22.2,0-43.2,0-65.4c-3.7,0-6.1,0-9.9,0c0,3.7,0,6.1,0,8.7c0,49.4,0,97.5,0,146.8c0,9.9-3.7,17.3-12.3,22.2
	c-8.7,1.3-17.3,0-24.7-5c-7.4-5-9.9-12.3-9.9-19.7c0-16,0-30.8,0-46.9c0-77.8,0-155.5,0-233.3c0-5,0-8.7-5-11.1
	c-2.4-1.3-3.7-3.7-6.1-6.1c-16-26-33.3-51.8-49.4-77.8c-6.1-8.7-5-16,1.3-23.4c17.3-21,34.5-42,50.6-61.7c8.7-8.7,18.5-9.9,27.1-3.7
	c7.4,7.4,8.7,18.5,0,27.1c-6.1,8.7-13.6,17.3-21,24.7C2146.5,1493.8,2139.1,1501.2,2131.7,1509.8z"/>
<path d="M2118.1,1930.7c59.2,0,117.3,0,176.5,0c0,43.2,0,87.6,0,130.8c-6.1,0-13.6,0-21,0c0-6.1,0-12.3,0-18.5
	c-44.4,0-88.9,0-133.3,0c0,6.1,0,12.3,0,18.5c-7.4,0-14.8,0-21,0C2118.1,2017.1,2118.1,1973.9,2118.1,1930.7z M2140.3,2018.4
	c44.4,0,88.9,0,133.3,0c0-7.4,0-13.6,0-21c-44.4,0-88.9,0-133.3,0C2140.3,2004.8,2140.3,2011,2140.3,2018.4z M2272.4,1952.9
	c-44.4,0-88.9,0-133.3,0c0,7.4,0,13.6,0,19.7c44.4,0,88.9,0,133.3,0C2272.4,1966.5,2272.4,1960.3,2272.4,1952.9z"/>
<path d="M2302,1393.8c-69.1,0-137,0-204.9,0C2145.3,1345.7,2241.5,1337.1,2302,1393.8z"/>
<path d="M2195.9,1465.4c8.7,3.7,19.7,7.4,30.8,11.1c1.3,0,2.4,2.4,5,2.4c8.7,3.7,8.7,5,2.4,11.1c-18.5,18.5-38.2,38.2-56.8,56.8
	c-7.4,7.4-7.4,7.4-13.6-1.3c-8.7-12.3-12.3-24.7-11.1-39.5C2155.2,1481.5,2174.9,1467.9,2195.9,1465.4z"/>
<path d="M2237.8,1498.8c13.6,12.3,13.6,38.2-1.3,54.3c-16,16-40.7,16-55.5,2.4C2199.6,1535.8,2219.3,1517.2,2237.8,1498.8z"/>
<path d="M2216.8,1430.9c0,9.9-5,16-12.3,18.5c-7.4,3.7-14.8,1.3-19.7-5s-5-14.8,0-21c3.7-3.7,6.1-7.4,5-13.6c0-6.1,5-7.4,9.9-7.4
	c5,0,8.7,1.3,8.7,8.7c0,5,0,8.7,5,12.3C2215.6,1424.7,2215.6,1429.6,2216.8,1430.9z"/>
<polygon fill="#060307" points="1321.2,249.6 1240.6,206.4 1159.4,248.3 1175.6,158.4 1110.6,94 1201.2,81.6 1242.3,0 1282.1,82.3 
	1372.4,96.2 1306.5,159.4 "/>
<line fill="none" stroke="#000000" stroke-width="60" stroke-miterlimit="10" x1="281.2" y1="1257.6" x2="1105.2" y2="201.6"/>
<line fill="none" stroke="#000000" stroke-width="60" stroke-miterlimit="10" x1="1353.2" y1="185.6" x2="2177.2" y2="1265.6"/>
<line fill="none" stroke="#000000" stroke-width="60" stroke-miterlimit="10" x1="1225.2" y1="275.6" x2="1225.2" y2="737.6"/>
</svg>
